<svg id="svg2" xmlns="http://www.w3.org/2000/svg" viewBox="0 0 77.66 92.2" width="52" height="56"><title>icon__apple</title><path id="path4" d="M76,71.85a49.78,49.78,0,0,1-5,8.91,45.13,45.13,0,0,1-6.39,7.72,12.36,12.36,0,0,1-8.21,3.61,20.42,20.42,0,0,1-7.58-1.81,21.81,21.81,0,0,0-8.16-1.8,22.62,22.62,0,0,0-8.39,1.8,22.32,22.32,0,0,1-7.25,1.91q-4.22.18-8.39-3.71a47.62,47.62,0,0,1-6.68-8A54.88,54.88,0,0,1,3,66.46,51.21,51.21,0,0,1,0,49.74a30.54,30.54,0,0,1,4-16,23.53,23.53,0,0,1,8.4-8.5,22.68,22.68,0,0,1,11.35-3.2,26.81,26.81,0,0,1,8.78,2c3.62,1.36,6,2.05,7,2.05q1.16,0,7.73-2.41,6.21-2.23,10.49-1.86,11.64.93,17.46,9.19-10.4,6.3-10.3,17.64a19.51,19.51,0,0,0,6.39,14.67,21.23,21.23,0,0,0,6.39,4.19c-.51,1.48-1,2.9-1.63,4.27Zm-17.79-70a19.67,19.67,0,0,1-5,12.91c-4.05,4.73-9,7.47-14.27,7a14,14,0,0,1-.1-1.75A20.22,20.22,0,0,1,44.17,7a20.68,20.68,0,0,1,6.52-4.89A19.45,19.45,0,0,1,58.15,0c.06.62.09,1.23.09,1.84Z"/></svg>