<svg id="Warstwa_1" data-name="Warstwa 1" xmlns="http://www.w3.org/2000/svg" width="114" height="33" viewBox="0 0 130.07 37.07"><title>logo__bbc</title><path d="M70.47,24c0,4-5,3.79-5,3.79h-5V20.47h5c5.16,0,5,3.49,5,3.49m-10-14.59h3.82c4,.21,3.81,3.16,3.81,3.16,0,3.67-4.38,3.73-4.38,3.73H60.45Zm9.1,8.32A5.91,5.91,0,0,0,73,12.35s.52-6.35-7.9-7.13H55.7V31.87H66.41s9,0,9-7.52c0,0,.21-5.14-5.81-6.66M45.36,0H84.7V37.07H45.36ZM25.11,24c0,4-5,3.79-5,3.79h-5V20.47h5c5.15,0,5,3.49,5,3.49m-10-14.59H18.9c4,.21,3.82,3.16,3.82,3.16,0,3.67-4.39,3.73-4.39,3.73H15.08V9.37Zm9.1,8.32a5.91,5.91,0,0,0,3.4-5.34S28.1,6,19.68,5.22H10.34V31.87H21.05s9,0,9-7.52c0,0,.21-5.14-5.82-6.66M0,0H39.34V37.07H0ZM122,7.13v4.92a22.45,22.45,0,0,0-10.11-3s-9.91-.19-10.35,9.5c0,0-.36,8.91,10.23,9.42,0,0,4.44.53,10.47-3.31v5.1a21.25,21.25,0,0,1-17.45,1.1,13.5,13.5,0,0,1-8.18-12.31s-.33-9.71,10.18-12.93a18.94,18.94,0,0,1,7.84-.6A28.61,28.61,0,0,1,122,7.13M90.73,37.07h39.34V0H90.73Z"/></svg>
