<svg width="603" height="482" viewBox="0 0 603 482" fill="none" xmlns="http://www.w3.org/2000/svg">
<mask id="mask0_96_74" style="mask-type:alpha" maskUnits="userSpaceOnUse" x="33" y="0" width="570" height="482">
<path fill-rule="evenodd" clip-rule="evenodd" d="M193.816 242.903C271.106 301.329 388.326 294.316 455.646 227.24C522.956 160.165 514.876 58.4256 437.596 0L193.816 242.903Z" fill="#100263"/>
<path d="M96.8381 72.6036C43.3561 93.2146 19.2519 147.552 42.9998 193.969C66.7478 240.387 129.355 261.307 182.837 240.696C236.319 220.085 260.423 165.748 236.675 119.33C212.927 72.913 150.32 51.9926 96.8381 72.6036Z" fill="#100263"/>
<path fill-rule="evenodd" clip-rule="evenodd" d="M551.756 481.847C613.566 435.307 620.206 354.09 566.576 300.443C512.956 246.797 419.376 241.037 357.566 287.577L551.756 481.847Z" fill="#100263"/>
</mask>
<g mask="url(#mask0_96_74)">
<path d="M831.867 526.145C831.367 525.176 831.537 524.218 831.047 523.248C830.427 521.866 828.987 520.744 828.577 519.296C827.307 515.635 826.507 512.052 824.477 508.86C818.767 499.84 813.537 490.9 810.227 480.89C803.867 462.591 797.007 441.744 776.787 435.784C765.287 432.231 752.037 428.789 742.627 437.215C734.317 444.954 724.977 451.439 714.897 456.463C715.267 455.439 716.187 454.699 716.347 453.741C717.117 449.428 718.687 445.54 720.127 441.238C720.307 440.281 721.207 439.54 721.577 438.516C722.497 432.351 727.417 428.519 731.797 425.091C733.247 423.947 735.007 423.838 736.517 422.903C739.407 421.301 742.187 420.866 745.067 419.266C748.577 417.467 752.227 416.981 755.637 415.664C756.457 415.402 756.957 414.793 757.707 414.324C775.547 407.271 797.847 406.469 812.777 420.445C813.367 420.936 813.457 422.027 814.037 422.525C819.757 427.7 822.527 434.258 825.977 440.847C832.247 452.622 841.197 469.856 856.787 465.108C856.547 464.279 856.167 463.725 856.137 462.831C856.167 462.145 856.657 461.54 856.537 461.121C855.947 459.053 855.617 457.125 856.317 454.869C856.397 454.39 855.807 453.9 855.897 453.421C861.467 434.696 857.337 416.371 850.937 399.435C846.597 388.173 839.537 377.552 828.967 370.994C815.627 362.605 800.947 359.619 785.767 358.821C776.507 358.394 767.867 362.508 759.457 365.871C753.447 368.245 748.497 372.757 742.837 376.378C734.617 381.941 726.917 387.789 718.757 393.558C715.577 395.703 712.727 398.198 709.927 400.897C709.627 398.283 710.987 396.043 712.217 394.062C719.067 382.159 729.767 375.126 741.347 368.038C746.657 364.761 751.237 361.261 756.657 358.402C767.107 352.807 775.197 345.251 783.587 337.149C785.137 335.526 786.327 334.241 787.607 332.478C788.097 331.868 788.977 331.813 789.477 331.203C794.277 325.377 797.347 318.974 800.887 312.648C801.847 310.535 802.657 308.694 803.937 306.931C808.047 301.069 812.467 295.435 817.177 290.053C819.157 287.614 821.377 286.003 823.617 283.705C824.457 282.757 825.037 281.668 825.887 280.72C826.787 279.981 827.807 279.655 828.717 278.914C829.407 278.239 829.647 277.487 830.347 276.813C831.797 275.669 833.637 275.081 834.977 273.524C835.207 273.194 835.467 272.885 835.757 272.6L835.417 272.708C835.357 272.508 835.237 272.086 835.237 272.086C829.567 272.543 825.377 269.592 820.807 267.663C817.177 265.887 813.867 264.459 810.007 263.435C809.277 263.215 808.517 263.684 807.777 263.468C804.817 261.703 802.367 262.487 799.557 262.027C798.827 261.81 798.387 261.048 797.717 261.037C793.207 260.893 789.007 261.786 784.707 261.578C767.017 261.358 753.157 273.694 743.527 287.613C738.267 294.941 733.027 301.582 728.617 309.551C726.957 312.339 726.297 315.485 724.957 318.623C721.107 328.582 717.837 337.693 714.347 347.634C714.197 348.31 714.077 348.994 713.997 349.681C713.767 350.433 713.217 350.836 712.987 351.587C712.757 352.339 713.247 353.308 713.017 354.06C712.777 354.498 712.557 354.916 712.357 355.345C712.337 355.763 712.277 356.18 712.187 356.589C711.647 357.949 711.157 359.232 710.747 360.498C710.307 362.606 710.047 364.754 709.557 366.911C709.607 364.636 710.067 362.596 710.747 360.498C711.077 358.725 711.617 356.995 712.357 355.345C712.417 354.423 712.387 353.453 712.607 352.612C713.197 350.926 713.777 349.267 714.347 347.636C714.517 346.867 714.727 346.126 714.987 345.301C715.357 344.276 714.797 343.101 714.977 342.142C717.137 333.32 717.537 324.608 718.767 315.635C719.047 313.511 718.987 311.724 719.387 310.014C722.057 298.318 726.847 287.755 727.977 276.102C728.137 273.565 728.157 271.299 728.587 268.903C728.817 266.572 727.697 264.219 727.717 261.955C728.257 251.391 726.357 241.61 722.287 232.069C718.477 222.67 712.457 214.88 709.267 205.285C706.907 198.587 703.487 192.902 701.177 186.411C700.147 183.58 698.967 181.02 697.237 178.863C696.847 178.307 696.817 177.414 696.637 176.792C696.017 175.41 695.257 174.299 694.147 173.536C695.137 189.48 689.697 204.77 685.787 220.702C682.067 236.571 680.457 251.992 683.147 267.612C684.737 277.043 688.097 285.688 690.227 294.711C691.057 297.621 691.687 300.592 692.097 303.603C692.757 307.458 692.887 311.029 693.137 315.017C693.087 324.97 692.187 334.293 692.867 344.465C693.387 351.751 691.047 358.371 692.187 365.461C693.117 371.037 692.527 375.972 692.657 381.122C692.657 381.543 692.687 381.963 692.747 382.378C693.287 384.197 693.827 386.011 694.347 387.81C693.817 385.958 693.017 384.192 692.747 382.378C691.547 378.337 690.327 374.26 689.317 370.22C689.337 369.534 689.517 368.575 689.547 367.889C689.397 366.581 688.637 365.471 688.487 364.164C688.277 357.227 687.377 350.965 686.567 344.222C685.727 338.166 685.007 332.524 683.817 326.808C682.327 320.054 680.837 313.303 676.757 307.606C667.387 294.338 652.827 286.34 636.947 286.218C619.057 286.061 601.087 287.964 584.307 295.584C580.197 297.576 577.167 301.029 575.427 305.875C571.207 319.194 564.967 329.321 556.727 340.308C555.947 341.463 557.457 338.947 558.957 340.275C559.547 340.765 561.007 339.621 562.287 339.438C563.167 339.382 563.957 339.808 564.777 339.546C574.987 336.281 585.457 335.423 595.777 336.416C609.667 337.4 622.977 341.05 634.437 349.133C652.317 361.716 662.787 379.601 676.207 396.101C680.437 401.525 680.907 408.605 682.597 415.293C683.097 417.842 683.337 420.249 683.847 422.802C685.667 433.062 683.597 442.983 684.607 453.505C684.847 455.895 685.687 458.093 685.477 460.407C685.757 461.388 686.027 462.37 686.307 463.349C686.007 462.316 685.507 461.345 685.487 460.452L685.477 460.407C682.377 449.175 679.817 437.927 675.477 427.059C673.817 422.845 673.107 418.781 671.307 414.839C670.687 413.456 670.277 412.008 669.447 410.692C668.007 407.989 665.927 406.171 663.287 404.755C662.707 404.265 662.467 403.436 661.877 402.947C658.887 400.289 654.877 399.526 651.657 397.63C641.957 392.597 631.467 390.982 620.507 392.449C614.697 393.179 609.557 395.497 603.807 396.433C592.757 398.373 582.517 402.33 572.067 406.347C569.817 407.065 567.887 408.132 565.757 409.266C552.597 415.502 547.277 429.626 537.957 440.733C527.157 453.671 517.297 465.18 509.137 479.533C508.207 480.958 506.807 482.308 505.667 483.804C502.297 489.174 501.947 494.935 505.727 499.597C506.437 500.5 508.077 501.558 509.157 501.436C519.057 499.405 526.807 492.183 534.467 485.445C541.577 479.107 549.017 473.119 556.327 466.728C557.927 465.311 559.007 463.613 560.607 462.197C561.717 461.391 562.997 461.206 564.107 460.398C565.017 459.659 565.537 458.362 566.557 458.036C580.557 450.843 594.697 448.817 610.307 447.221C611.587 447.036 612.697 446.23 614.047 446.253C622.807 445.711 630.987 444.676 639.967 444.07C641.247 443.885 642.357 443.079 643.697 443.1C654.687 442.525 663.807 448.647 671.807 455.577C678.647 461.525 680.367 470.685 682.047 479.637C682.607 482.393 683.377 485.075 683.947 487.839C684.777 492.313 683.797 496.693 684.637 501.168L683.817 501.43C683.167 499.153 681.347 497.475 680.497 495.264C679.907 493.338 679.217 491.448 678.427 489.601C676.237 483.523 674.137 476.967 668.567 473.1C661.297 467.969 653.377 465.985 644.917 463.724C632.917 460.78 621.387 464.916 610.207 468.716C607.547 469.565 605.207 470.762 602.677 472.026C593.477 476.543 584.937 481.758 579.207 490.59C571.767 502.001 563.917 511.964 554.217 520.937C545.767 528.832 540.857 538.979 536.727 550.241C535.517 553.108 533.967 555.707 532.937 558.375L575.547 554.074C576.227 553.357 576.897 552.623 577.567 551.872C578.267 551.197 579.547 551.011 580.247 550.338C580.747 549.727 580.767 549.047 581.267 548.431C582.457 547.147 584.177 546.145 585.107 544.718C594.547 527.021 610.487 514.926 629.477 511.118C630.967 510.868 632.397 510.41 633.947 510.367C640.547 510.064 646.407 513.387 652.437 515.751C656.217 517.256 659.787 518.825 663.417 520.601C664.207 521.024 665.297 520.905 666.087 521.331C672.997 525.221 677.407 531.265 680.707 538.116C681.457 539.803 682.127 541.516 682.727 543.253L705.127 540.992C705.057 540.102 704.957 539.207 704.847 538.306C704.277 532.393 704.137 527.233 704.557 521.686C704.697 521.416 705.047 521.077 705.187 520.796C705.157 519.904 704.517 519.214 704.747 518.455C705.787 515.874 706.037 512.847 706.207 510.308C706.377 509.35 706.197 507.15 707.537 507.173C707.477 506.972 707.417 506.76 707.357 506.551L707.977 506.357L707.737 505.529C711.967 503.95 716.267 502.578 720.617 501.413C720.877 501.556 721.197 501.905 721.667 501.98C722.747 501.86 723.657 501.121 724.537 501.072C726.817 501.254 728.617 499.767 730.487 500.072C736.317 500.929 742.007 499.78 747.977 500.358C749.847 500.665 751.537 500.349 753.407 500.654C753.877 500.73 754.387 500.12 754.847 500.197C761.887 502.235 768.447 503.303 774.517 508.141C775.097 508.63 776.187 508.511 776.977 508.924C778.557 509.776 779.637 511.235 781.077 512.357C781.867 512.781 782.747 512.727 783.537 513.153C791.927 519.586 799.987 524.227 808.207 530.573L833.497 528.02C833.317 527.603 833.147 527.179 832.937 526.734C832.597 526.365 832.187 526.495 831.867 526.145Z" fill="#F87E5C"/>
<path d="M424.517 259.645C422.817 259.016 421.117 259.254 419.417 258.841C405.627 255.544 392.477 251.369 378.207 252.851C378.207 252.851 377.987 253.72 378.197 254.153C379.247 255.223 378.597 255.882 379.227 256.524C380.707 258.027 381.327 259.754 381.937 261.698C380.877 261.712 380.027 261.939 378.957 261.736C371.737 260.092 365.137 261.481 358.097 262.864V263.515C357.667 263.738 356.817 263.315 356.817 263.532C356.387 264.195 356.587 265.054 356.577 265.922C357.857 265.687 357.847 266.772 358.047 267.424C359.267 272.182 363.287 275.167 365.357 279.482C365.567 279.915 365.347 280.569 365.347 281.003C364.067 281.018 362.787 281.034 361.517 280.398C360.037 279.768 358.117 280.226 356.417 279.813C354.727 279.4 352.807 279.641 351.107 279.662C352.787 281.811 354.037 283.965 356.147 285.89C358.887 288.026 362.477 290.584 361.357 294.719C355.407 294.794 349.447 294.652 343.487 294.945L343.477 295.812C343.837 296.146 344.057 296.607 344.107 297.105C348.117 300.094 352.757 303.505 350.357 308.308C350.357 308.742 349.497 309.187 349.287 309.19C343.967 309.691 338.867 308.669 333.527 310.038C333.327 310.04 333.297 311.993 333.497 313.294L334.347 313.283C334.347 313.489 334.337 313.934 334.337 314.15C338.137 316.706 342.997 320.333 341.247 324.479C341.027 325.13 339.107 324.937 337.827 325.389C333.777 326.308 329.957 325.269 325.907 325.973C324.627 326.208 323.557 326.654 322.297 326.452C322.287 326.885 322.067 327.539 322.277 327.97C325.417 332.053 328.577 335.268 331.507 339.353C331.927 340 331.707 341.305 331.707 341.305C327.437 342.008 323.197 340.977 318.927 341.899C318.287 342.122 317.857 342.779 317.437 342.568C317.427 343.219 317.207 344.09 317.407 344.737L318.257 344.726V345.596C322.057 348.151 325.647 350.275 327.727 354.153C328.357 355.448 325.367 356.136 324.087 356.151C323.877 356.379 323.657 356.814 323.447 357.028C321.947 357.48 320.247 357.501 318.757 357.955C317.687 358.185 316.827 358.63 315.767 358.86C314.057 359.098 312.547 360.629 310.637 360.225C314.647 363.43 318.877 365.546 323.317 368.528C323.517 368.526 323.517 369.393 323.297 369.83L322.447 369.842C322.237 370.07 322.017 370.504 321.797 370.716C321.377 370.939 320.527 370.516 320.097 370.737C315.607 372.747 310.917 373.674 306.017 374.603C308.317 378.261 313.207 378.624 316.147 381.629C316.567 382.057 314.657 382.298 313.997 382.742C312.927 383.405 311.657 382.772 310.377 383.004C309.737 383.23 309.307 383.667 308.877 383.89C307.847 383.887 306.827 384.123 305.887 384.58C305.247 384.804 304.187 384.384 303.547 384.61L303.537 385.478C304.387 386.119 304.377 386.553 304.587 386.984C309.407 393.866 317.047 396.374 323.357 401.284C324.837 402.567 325.897 403.206 327.377 404.055L327.367 404.923C328.207 405.562 329.487 405.328 330.117 405.755C338.787 411.072 347.467 414.649 356.147 418.446C365.467 422.459 374.567 426.677 384.557 427.202C390.717 427.776 396.877 429.217 403.237 430.224C428.927 435.108 453.387 435.02 478.717 434.05C480.847 434.023 483.197 433.344 485.327 433.1C491.077 432.594 495.997 429.928 501.757 428.345C509.017 426.302 515.227 422.753 521.847 419.851C529.257 416.329 535.737 411.779 542.227 406.919C546.407 402.004 549.707 396.353 551.547 389.973C551.757 389.538 552.187 389.314 552.407 389.094C553.577 379.316 551.767 370.226 548.677 360.937C547.647 357.695 545.977 355.113 544.517 351.877C542.647 347.996 540.987 344.545 538.047 341.328C537.837 340.897 538.267 340.24 538.057 339.809C537.227 338.517 535.957 337.884 534.897 336.811C534.697 336.38 534.697 335.729 534.277 335.299C533.017 334.665 532.377 334.022 531.967 332.943C531.547 332.515 530.907 332.738 530.487 332.31C529.437 331.021 528.387 329.951 527.337 328.661C524.717 325.34 521.757 322.323 518.497 319.661C516.597 317.95 514.487 316.456 512.167 314.967C511.747 314.539 511.757 313.888 511.337 313.458C507.737 311.117 503.927 309.871 500.987 306.645C500.567 306.434 499.927 306.226 499.507 306.013C499.087 305.585 499.087 304.934 498.667 304.506C491.077 298.742 483.887 294.711 476.077 289.384C473.957 288.109 472.277 286.612 470.377 285.334C462.147 279.148 454.537 274.686 445.877 268.718C439.137 264.236 431.927 262.372 424.517 259.645ZM478.667 420.363C437.847 422.33 397.127 416.542 359.687 401.21C373.607 401.148 386.867 403.213 401.137 405.487C420.207 408.722 437.797 411.101 457.117 413.732C461.247 414.275 465.187 414.736 469.487 414.877C471.307 414.927 473.007 414.693 474.827 414.741C476.167 414.829 477.537 415.401 478.877 415.486C489.407 416.101 499.767 415.465 510.167 415.312C499.867 418.24 489.297 419.935 478.667 420.363ZM524.997 396.442C521.947 396.589 518.967 396.051 515.917 396.197C488.117 397.353 461.237 396.301 433.567 392.786C408.917 389.701 384.627 386.616 361.427 379.92C354.607 377.307 347.787 374.616 341.427 370.627C341.007 370.355 340.607 370.041 340.247 369.69C340.547 369.599 340.867 369.561 341.177 369.579C345.587 370.003 349.727 370.547 354.137 370.971C355.867 371.221 357.767 371.068 359.307 371.237C363.047 371.617 366.897 372.281 370.647 372.66C417.927 377.036 461.537 384.123 509.197 391.976C512.577 392.677 515.797 392.135 519.257 392.628C524.447 393.377 529.117 393.197 534.197 393.664C535.457 393.95 536.517 394.159 537.687 394.649C533.517 395.274 529.277 396.099 524.997 396.442ZM528.967 386.991C522.907 386.117 517.387 384.518 511.217 383.359C508.227 382.823 505.887 381.834 502.897 381.31C484.277 377.555 466.917 374.086 449.337 368.402C444.477 366.847 439.347 365.413 434.487 363.858C408.047 356.031 382.097 348.795 356.277 340.24C362.067 340.595 367.737 341.595 373.197 343.692C374.057 343.811 374.897 343.458 375.767 343.583C378.017 344.323 380.347 344.82 382.717 345.067C395.807 347.225 407.307 349.898 420.427 352.539C424.087 353.121 427.267 353.741 430.677 354.924C433.497 355.866 436.737 355.801 439.637 356.539C467.287 362.875 491.827 373.832 517.627 383.425C521.407 384.778 525.347 385.242 528.967 386.991ZM498.377 364.761C500.147 365.498 501.777 366.538 503.397 367.626C505.007 368.714 506.577 369.84 508.247 370.772C507.657 370.572 507.057 370.369 506.467 370.163C479.497 360.915 453.487 349.398 428.007 336.6C418.897 332.828 409.847 328.894 400.967 324.566C391.237 319.816 382.407 313.909 372.647 309.263C372.297 309.092 371.947 308.922 371.587 308.752C384.727 311.14 396.837 316.328 408.817 321.88C417.077 325.258 425.237 328.919 433.297 332.861C454.957 343.559 476.377 354.864 498.377 364.761ZM540.547 376.931C486.377 352.948 434.837 323.723 382.627 295.664C383.857 297.018 385.027 298.361 386.537 299.397C398.567 308.442 409.127 318.284 421.647 325.637C409.127 318.283 398.577 308.442 386.537 299.397C385.027 298.361 383.857 297.018 382.627 295.664C380.557 294.552 378.497 293.443 376.427 292.338C378.497 293.444 380.557 294.553 382.627 295.664C381.677 294.571 380.627 293.572 379.497 292.678C379.187 292.315 378.967 291.749 379.337 291.427C379.897 291.189 380.567 291.233 381.237 291.276C383.467 291.972 385.697 292.667 388.097 292.961C393.297 293.71 398.577 294.259 403.337 296.015C453.397 314.535 497.357 345.895 540.547 376.931ZM458.687 297.593C471.367 304.546 481.947 313.221 493.317 322.22C493.817 322.72 494.487 323.022 495.207 323.294C495.527 323.419 495.857 323.536 496.187 323.663C495.867 323.535 495.537 323.414 495.207 323.294C494.247 322.985 493.327 322.584 492.447 322.095C491.057 321.04 489.657 319.986 488.187 319.134C464.867 308.723 443.347 295.011 420.867 282.721C423.167 283.107 425.447 283.497 427.607 284.149C438.307 287.663 448.647 291.986 458.687 297.593Z" fill="#F87E5C"/>
<path d="M191.636 187.295C191.526 186.876 191.366 186.476 191.146 186.106C191.286 186.526 191.456 186.937 191.646 187.338C191.646 187.327 191.636 187.311 191.636 187.295Z" fill="#F87E5C"/>
<path d="M271.187 270.515C270.417 269.194 271.007 268.208 271.987 267.329C271.927 266.084 271.867 264.835 271.817 263.581C271.557 257.932 272.057 252.496 272.547 246.41C273.797 231.094 273.617 217.102 274.417 201.881C274.647 195.94 277.347 190.89 277.527 185.149C277.567 184.092 277.637 183.03 277.717 181.968C276.517 178.976 277.477 175.4 278.207 172.141C278.167 171.696 278.157 171.249 278.167 170.801C278.097 170.274 277.987 169.722 277.927 169.16C278.047 166.176 279.287 163.9 278.767 160.784C278.417 159.344 279.517 157.723 279.367 156.256C279.107 145.051 280.727 134.035 282.987 122.934C284.097 117.28 286.077 111.944 287.167 106.082C287.617 104.327 288.077 102.573 288.527 100.82C288.837 99.7212 288.487 98.2808 288.367 97.024C288.537 96.5796 288.677 95.9259 288.837 95.4799C288.777 94.8526 288.697 94.0147 288.627 93.3852C288.757 92.5223 289.317 91.816 289.027 91.0052C288.307 87.9139 289.927 85.3762 289.667 82.6542C289.317 74.8466 289.167 67.0181 287.157 59.2221C285.157 51.6263 278.357 44.001 269.527 47.4459C267.097 48.1762 266.547 51.0016 264.127 51.9409C263.547 52.2272 263.417 53.3026 262.867 54.0089C259.627 57.1731 256.357 59.9185 253.577 63.4478C252.647 64.6249 251.227 65.016 250.297 66.1931C248.247 68.1007 246.487 70.3256 245.107 72.7829C243.687 75.2956 242.847 77.3106 241.157 79.219C239.307 81.5733 238.567 84.6406 237.367 87.3289C236.317 89.3707 235.037 91.2272 234.197 93.2422C233.327 95.0468 232.707 97.2454 231.847 99.0518C230.767 100.884 230.547 102.822 229.887 104.599C226.617 111.586 226.487 118.812 228.467 126.195C229.087 128.238 228.667 130.412 229.637 131.773C233.347 137.667 234.207 144.345 237.097 150.342C238.687 153.746 239.467 157.465 240.657 161.127C241.257 162.96 242.427 164.296 243.237 166.104C243.767 167.309 243.687 168.592 244.197 169.587C248.707 177.29 250.647 186.376 248.997 195.065C246.437 194.538 246.397 192 244.987 190.268C243.547 188.329 243.687 185.555 242.617 183.145C242.107 182.149 241.197 181.415 240.887 180.395C237.037 166.674 226.847 158.414 217.197 149.239C210.947 143.444 204.367 138.045 197.467 133.068C196.787 132.518 196.477 131.496 195.797 130.946C187.007 124.197 173.627 115.29 163.947 124.992C161.097 127.894 158.467 130.771 155.847 133.858C154.737 135.271 154.717 137.182 153.627 138.803C150.35 143.674 150.492 149.374 152.837 154.169C153.597 155.558 154.527 156.5 155.457 157.445C158.927 161.236 162.187 164.647 166.617 167.271C174.377 172.019 182.857 173.495 189.097 179.707C204.807 195.329 220.107 208.882 235.987 224.059C239.427 227.231 242.167 231.761 243.477 236.685C243.067 236.726 242.267 237.051 242.037 236.867C240.397 234.953 238.187 233.747 236.787 232.237C231.207 226.366 224.727 224.001 217.727 220.642C217.287 220.479 216.717 220.981 216.277 220.825C211.537 216.97 206.077 214.476 202.017 209.262C200.857 208.141 199.337 207.469 198.197 206.551C194.037 202.41 189.777 199.352 184.507 196.611C182.987 195.956 181.477 195.509 180.187 195.035C177.547 193.979 174.737 193.4 171.887 193.324C160.617 193.258 149.418 195.941 140.026 202.212C136.69 204.328 137.823 209.487 139.181 212.708C140.252 215.118 139.902 217.919 140.576 220.591C142.079 227.399 140.719 234.779 145.805 239.865C150.664 244.765 155.627 248.594 161.037 252.788C165.097 255.887 170.017 257.171 175.247 257.362C176.507 257.414 177.577 257.705 178.817 257.549C179.217 257.498 179.887 257.839 180.317 257.996C181.137 257.892 181.947 257.58 182.577 257.711C187.767 259.602 192.797 257.698 197.977 257.468C198.617 257.609 199.477 257.914 200.097 257.838C206.937 257.401 213.997 257.148 220.797 258.413C223.777 259.098 226.887 258.918 229.527 260.283C235.437 263.143 239.987 267.022 245.357 270.799C246.247 271.329 247.497 271.377 248.387 271.903C256.437 277.461 252.997 289.133 254.477 297.852C254.497 298.057 253.017 297.825 252.357 297.482C248.527 294.567 244.407 292.97 240.577 290.061C239.917 289.715 239.097 289.823 238.437 289.483C235.037 286.73 231.287 284.656 227.377 283.028C215.607 277.727 203.307 282.031 190.827 282.329C189.567 282.276 188.107 282.249 187.327 282.771C183.247 285.829 180.237 289.175 177.337 293.571C176.967 294.042 176.347 294.119 175.957 294.379C170.947 300.735 168.107 307.878 162.437 313.893C161.887 314.599 161.787 315.672 161.227 316.379C160.667 317.085 159.657 317.422 159.107 318.128C158.367 319.07 158.077 320.379 157.337 321.321C150.121 330.717 139.971 337.713 137.15 349.308C135.811 354.776 137.559 361.978 143.346 363.581C147.197 364.582 151.872 363.356 156.137 362.183C167.897 358.796 176.707 350.901 186.387 343.319C196.477 335.696 205.737 327.951 216.887 322.728C222.057 320.169 227.987 318.999 234.067 319.293C235.957 319.48 237.587 319.064 238.887 319.535C246.737 322.692 251.247 329.603 254.787 337.155C254.547 333.305 254.247 329.435 253.227 325.575C252.657 323.951 253.187 320.915 253.827 318.927C253.187 320.915 252.657 323.951 253.227 325.575C254.247 329.435 254.547 333.305 254.787 337.155C256.147 340.033 257.357 343.005 258.557 345.897C259.057 346.672 259.737 347.223 260.207 347.809C259.737 347.237 259.057 346.687 258.557 345.897C257.357 343.005 256.147 340.033 254.787 337.155C255.107 342.105 255.317 347.021 256.847 351.836C256.877 352.246 259.737 351.473 261.427 351.686C265.007 352.082 268.837 352.871 272.167 350.756C272.507 350.626 272.867 350.551 273.227 350.534C273.167 347.299 273.217 344.031 273.367 340.73C273.087 338.332 272.867 335.927 272.977 333.48C273.127 331.671 273.517 329.885 274.147 328.173C275.017 309.067 273.327 291.24 272.267 272.844C271.957 272.052 271.607 271.274 271.187 270.515Z" fill="#F87E5C"/>
<path d="M576.217 67.2744C570.737 60.745 565.057 54.6418 557.517 51.0267C549.257 46.8293 540.517 43.6931 532.347 39.2837C507.747 26.2674 484.417 11.5235 457.217 3.20911C440.387 -1.75019 424.387 3.60251 408.887 8.92751C406.427 9.73711 404.017 10.7026 401.657 11.8183C389.677 18.4954 376.797 24.5245 370.167 36.9702C371.617 37.7666 373.127 38.8216 374.277 37.0754L375.097 37.4441L375.477 36.5946C377.437 37.2086 379.307 38.5554 381.257 39.1694C381.677 39.3541 382.477 39.2052 382.987 39.1766C384.017 39.636 384.857 40.521 385.757 40.1594C387.167 39.7693 388.317 40.5353 389.537 40.5689C396.957 40.5667 404.127 42.237 411.487 43.4796C422.937 45.531 433.337 46.6044 444.697 48.8675C447.267 49.5174 449.777 50.3809 452.197 51.4494C471.577 60.0971 490.437 68.2568 511.657 73.9035C514.117 74.4809 516.557 74.5603 518.927 75.3599C520.367 76.0026 522.287 75.584 523.827 76.0169C525.767 76.8921 527.797 77.5418 529.887 77.9541C531.737 78.2649 533.297 79.7316 535.027 79.7385C542.967 80.2243 550.977 79.4632 559.287 78.5829C561.917 78.2284 565.007 79.0894 567.617 78.2193C569.537 77.8005 570.957 77.9268 572.277 77.7484C575.207 77.2727 578.347 76.8897 580.297 74.1894C577.807 72.5711 577.807 69.2565 576.217 67.2744Z" fill="#F87E5C"/>
<path d="M291.777 323.92C291.977 323.937 291.857 323.056 291.897 322.622C292.487 320.912 293.857 319.933 294.447 318.238C298.867 305.27 303.417 293.184 306.557 280.122C308.747 270.478 309.217 260.924 309.507 251.137C310.277 227.002 304.307 204.332 299.267 180.857C299.117 180.193 299.637 179.141 299.497 178.477C299.257 177.675 299.037 176.839 298.787 175.984C296.657 173.257 294.867 170.352 292.377 172.504C285.477 177.877 288.117 188.316 287.327 196.749C287.137 198.697 287.787 200.923 287.387 202.856C287.307 203.72 287.667 204.402 287.797 205.291C287.637 207.022 287.267 208.738 287.307 210.485C287.507 212.899 287.947 215.109 287.507 217.483C287.447 218.131 287.787 219.029 287.937 219.693C287.837 220.776 287.547 221.626 287.657 222.725C288.667 232.387 290.177 241.218 288.877 250.493C288.737 252.007 289.227 253.569 289.087 255.084C288.167 267.221 286.597 279.31 285.667 291.445C285.777 292.544 286.117 293.44 286.227 294.537C285.847 305.407 281.817 316.447 286.417 326.588C287.817 329.73 289.727 325.296 291.777 323.92Z" fill="#F87E5C"/>
<path d="M100.819 47.2499C107.32 44.6638 113.549 43.8802 120.479 45.0587C121.469 45.2271 122.429 44.2819 123.317 44.6815C140.387 47.6639 154.436 56.1685 169.226 63.6286C175.336 66.6489 181.657 69.207 187.677 72.4535C188.897 73.2808 190.026 74.3353 191.356 74.9335C198.306 78.209 205.326 81.3351 212.356 84.4397C210.346 85.3799 208.497 84.8297 206.757 84.5919C203.997 83.6328 201.376 84.1035 198.846 83.7913C193.566 83.0735 188.917 81.5386 183.657 81.3762C180.807 81.1957 178.087 81.9016 175.437 81.2628C164.397 78.5241 154.667 75.2555 143.421 72.9622C141.764 72.4938 140.415 71.338 138.655 71.0988C125.875 68.674 115.066 62.4404 104.051 56.6735C102.054 55.7771 99.5065 54.9114 98.1255 52.6423C97.0785 50.7997 98.4745 49.4906 99.5315 48.323C100.067 47.7366 100.597 47.1485 100.819 47.2499Z" fill="#F87E5C"/>
<path d="M87.7888 4.17312C87.8638 3.95912 88.5849 4.46222 88.9829 4.60772C90.7259 4.77652 92.1768 3.90982 93.9168 4.08082C107.182 5.42052 119.74 6.27242 132.545 8.83722C141.949 10.8639 150.548 14.4497 159.277 18.3158C180.817 27.7789 198.237 42.9282 216.747 57.5478C217.267 57.9698 218.417 57.9223 218.937 58.3443C219.527 58.9036 220.177 59.457 220.827 60.0541C222.327 63.205 224.117 66.1017 221.177 67.5169C213.547 71.7037 205.477 64.8277 197.717 62.0072C195.927 61.3624 194.247 59.8155 192.377 59.368C191.587 59.0789 191.137 58.4614 190.417 57.9604C188.827 57.382 187.157 57.0077 185.647 56.2235C183.607 55.0196 181.847 53.6826 179.587 53.0916C178.987 52.8755 178.337 52.185 177.817 51.7567C176.827 51.3947 175.967 51.3086 175.037 50.7437C166.957 45.7226 159.837 40.5777 151.136 37.8837C149.744 37.3762 148.582 36.2572 147.186 35.7501C136.122 31.5009 124.834 27.8584 113.77 23.6051C112.852 23.0373 112.208 22.3407 111.288 21.7732C101.571 17.5449 90.1698 16.6505 83.1848 8.07642C81.0108 5.42292 85.7158 5.50932 87.7888 4.17312Z" fill="#F87E5C"/>
<path d="M647.686 45.1505C643.456 38.4077 638.236 33.5142 631.006 29.9613C629.976 29.4463 629.746 27.9388 628.646 27.7108C610.816 19.0279 591.996 17.4717 573.196 14.4573C565.466 13.1485 557.866 11.2803 550.086 10.2541C548.376 10.1931 546.616 10.4145 544.966 10.0727C536.296 8.44291 527.656 6.62741 519.026 4.78931C520.236 7.00921 522.326 7.73951 524.086 8.68221C527.316 9.64281 529.396 11.837 531.956 13.2545C537.326 16.1298 542.676 17.8251 547.656 21.2027C550.416 22.9482 552.446 25.4229 555.326 26.6072C567.416 31.4606 578.666 34.9653 590.626 40.3809C592.476 41.0586 594.516 40.8941 596.306 41.8524C609.796 48.1668 624.066 49.6569 638.206 51.7086C640.676 52.2186 643.616 53.1229 646.456 51.9512C648.676 50.9464 648.296 48.812 648.116 47.0158C648.036 46.1074 647.946 45.204 647.686 45.1505Z" fill="#F87E5C"/>
<path d="M204.596 409.866C204.986 409.722 205.357 409.508 205.677 409.235C207.827 406.541 209.906 403.8 211.906 401.011C212.106 400.464 212.296 399.923 212.476 399.391C212.296 399.923 212.106 400.46 211.906 401.011C224.546 383.385 233.897 363.894 237.187 341.769C237.487 340.994 236.876 340.323 237.106 338.631C237.286 337.58 236.566 336.654 236.226 335.858C231.546 339.633 229.456 345.051 227.006 350.329C223.576 357.013 220.406 363.585 217.986 370.433C217.576 370.943 217.916 371.739 217.616 372.514C213.676 379.442 208.956 386.085 209.286 394.2C209.256 394.852 208.696 395.748 207.786 395.85C208.626 399.274 206.386 402.862 205.196 405.958C205.306 406.223 205.536 406.749 205.656 407.019L204.866 407.385L205.206 408.176L204.156 408.666C204.136 409.066 204.366 409.476 204.596 409.866Z" fill="#F87E5C"/>
<path d="M655.346 106.993C654.066 103.673 652.736 100.14 652.526 96.5229C652.686 95.3286 652.096 93.8829 651.996 92.5355C651.356 92.7134 650.246 92.7949 650.136 93.2844C648.286 96.7903 645.796 99.5534 642.456 101.637C641.876 102.029 641.926 103.164 641.286 103.341C640.496 103.795 639.696 104.247 639.216 105.069C638.266 107.642 637.846 109.59 636.896 112.154C635.836 115.208 636.366 118.277 636.366 121.034C636.426 133.205 634.156 144.167 633.636 155.808C633.636 159.484 633.106 162.85 633.056 166.31C633.006 167.933 633.856 169.532 634.026 171.098C633.916 171.587 633.646 172.351 633.756 172.776C634.126 174.28 634.026 175.69 634.236 177.474C634.236 179.311 634.876 180.972 635.306 182.692C635.306 183.61 635.036 184.369 635.246 185.233C635.726 188.087 637.056 190.704 637.056 193.459C636.966 197.626 638.016 201.923 638.816 206.078C638.656 206.352 638.286 206.684 638.126 206.958C638.226 208.308 638.976 209.479 638.876 210.887C638.666 212.784 639.516 214.385 639.726 216.167C639.626 216.657 639.196 216.776 639.086 217.263C639.036 217.966 639.466 218.767 639.626 219.412C640.206 223.615 638.516 227.765 639.476 231.633C637.876 225.189 636.016 218.583 634.636 212.075C634.536 210.727 634.626 209.318 634.526 207.97C631.876 196.303 628.576 184.816 628.726 172.594C628.726 170.758 627.826 168.942 627.826 167.113C627.816 164.356 626.806 162.111 626.386 159.473C626.386 158.553 626.646 157.795 626.646 156.871C623.776 144.346 623.556 131.539 625.136 118.687C625.246 117.324 625.136 115.958 624.816 114.641C624.816 113.722 625.506 112.84 625.556 112.135C625.126 104.903 622.476 98.75 618.546 92.9549C617.806 91.7914 616.686 90.9463 615.946 88.8565C615.676 87.7831 614.406 87.2206 613.916 86.2041C613.336 84.7585 613.386 83.1374 612.586 81.7504C612.486 81.3213 611.636 81.5576 611.586 80.4238C611.156 80.5431 610.256 80.5577 610.306 80.7794C607.876 87.4355 603.316 91.9286 601.786 98.5639C601.366 99.6015 600.406 100.327 599.986 101.365C597.336 109.919 593.786 117.575 593.216 126.239C592.636 131.227 591.416 136.393 591.796 141.573C592.176 143.995 592.486 146.205 592.856 148.629C594.296 158.108 596.846 167.505 599.766 176.568C600.196 178.288 601.256 179.83 601.736 181.765C602.166 183.484 603.436 184.965 604.496 186.507C604.866 187.089 604.866 188.012 605.076 188.872C605.396 189.252 605.976 189.769 606.086 190.198C609.116 201.531 615.376 211.267 621.276 221.339C622.016 222.502 622.916 223.408 623.876 225.437C625.026 227.611 626.036 229.615 627.096 231.677C627.756 232.626 628.416 233.58 629.076 234.552C629.506 235.353 629.556 236.487 629.826 237.573C629.546 236.562 629.156 235.592 628.656 234.682C628.106 233.653 627.596 232.665 627.096 231.687C623.806 226.977 620.496 222.48 617.396 217.6C611.716 208.388 603.546 201.022 600.416 190.179C599.246 186.375 596.846 183.131 595.046 179.499C593.086 175.222 591.436 171.317 589.316 167.317C588.836 166.3 589.046 165.323 588.566 164.306C588.146 163.507 587.556 162.98 587.186 162.394C586.176 159.231 585.596 155.95 584.106 152.687C583.526 151.241 583.576 149.618 582.776 148.231C577.946 139.702 575.396 129.386 566.856 123.272C558.046 117.004 551.526 108.028 542.186 102.366C535.036 114.708 533.666 128.421 534.206 142.516C534.596 150.452 536.916 157.154 540.056 164.319C540.796 165.482 541.906 166.327 542.446 167.557C547.116 178.2 551.316 187.827 559.436 195.897C560.916 197.319 561.186 199.313 562.616 200.529C566.436 204.064 568.456 208.546 573.066 210.703C573.596 211.015 573.656 212.149 574.226 212.675C575.076 213.357 576.296 213.704 577.146 214.386C580.276 217.876 583.616 220.389 587.646 222.937C593.326 226.637 598.416 230.725 604.256 234.15C606.436 235.61 608.026 237.462 610.196 238.916L608.076 239.508C604.736 239.754 602.296 238.139 599.016 237.678C593.876 237.049 588.886 235.227 583.956 232.699C581.836 231.454 579.866 229.935 577.536 228.751C562.636 222.578 550.006 215.539 536.206 207.448C529.896 203.929 523.206 201.661 516.056 200.216C503.856 197.654 492.136 195.186 479.676 194.306C478.506 194.174 477.236 194.53 475.856 194.456C474.896 194.264 473.836 194.559 472.676 194.427C472.196 194.33 471.666 194.941 471.186 194.841C470.656 194.531 469.806 193.849 469.706 194.338C467.956 199.192 470.606 204.424 472.626 208.916C474.486 212.763 477.406 216.311 481.116 218.489C489.126 223.373 495.926 228.827 504.406 232.887C514.436 237.666 523.986 240.512 534.536 242.848C537.616 243.362 540.476 244.863 543.706 246.025C549.546 248.531 555.806 249.078 561.956 250.114C562.436 250.211 563.016 249.817 563.436 249.698C565.986 249.906 568.316 250.174 570.656 250.44C574.366 250.779 578.126 250.415 581.946 250.267C583.066 250.186 583.856 250.653 584.646 251.12C585.126 251.216 585.706 250.823 586.136 250.706C587.506 250.773 589.046 251.497 590.216 251.631C597.796 251.119 604.696 251.488 611.906 252.23C608.776 253.334 605.916 251.835 602.366 252.14C600.616 252.399 598.436 251.859 596.686 252.119C589.106 252.631 581.946 252.107 574.896 253.848C574.416 253.752 573.676 253.501 573.196 253.401C570.166 254.015 567.416 253.869 564.446 253.778C563.486 253.586 562.536 254.313 561.426 254.395C560.736 254.357 560.416 253.987 559.726 253.947C558.616 254.031 557.656 254.757 556.706 254.564C555.536 254.43 554.426 254.511 552.886 254.712C548.906 255.136 545.306 255.226 541.376 254.016C536.176 252.253 531.086 252.758 525.836 250.78C523.826 249.964 521.756 250.78 519.676 249.751C519.146 249.441 518.566 248.914 517.826 248.663C511.036 246.884 504.456 245.047 498.356 241.469C492.576 238.259 486.046 236.637 479.636 235.446C478.886 235.193 478.356 235.801 477.086 235.238C476.076 234.83 474.966 234.912 473.906 235.209L472.846 234.585C471.786 234.882 470.036 234.223 469.926 234.712C469.566 242.398 476.566 245.955 482.296 249.868C482.826 250.177 483.406 249.786 483.936 250.097C485.366 251.446 486.956 252.623 488.656 253.603C489.716 254.225 490.246 255.455 491.096 256.137C491.626 256.449 492.266 256.271 492.796 256.585C505.416 268.22 520.006 275.859 537.716 274.122C540.636 273.997 543.336 273.929 546.146 273.373C546.996 273.136 548.176 273.27 549.226 272.973C549.916 273.009 550.446 273.321 551.136 273.358C552.246 273.277 553.206 272.549 554.106 272.528C555.366 272.646 556.646 272.522 557.866 272.163C558.136 272.32 558.456 272.69 558.926 272.786C560.466 272.586 561.636 271.799 563.486 271.971C564.446 272.164 565.396 271.436 566.506 271.354C567.196 271.392 567.736 271.704 568.206 271.802C571.226 271.185 574.096 269.926 577.116 269.31C578.226 269.228 579.286 269.852 580.406 269.77C582.476 269.879 584.276 269.836 586.236 270.436C587.936 270.884 589.636 270.405 591.116 270.91C591.916 271.376 592.706 271.843 593.616 271.819C594.036 271.702 594.836 271.248 594.886 271.463C596.006 272.3 597.006 271.79 597.756 272.041C599.186 272.33 600.726 271.211 602.256 271.01C602.736 271.107 603.476 271.36 603.956 271.458C611.326 270.095 618.436 271.316 626.066 271.017C626.966 270.994 627.496 270.388 628.406 270.369L629.196 270.836C630.096 270.813 630.626 270.206 631.526 270.187C631.796 270.342 632.116 270.715 632.376 270.869C633.066 270.907 633.816 270.24 634.876 270.861C635.346 270.958 635.876 270.347 636.356 270.447C636.886 270.757 637.046 271.409 638.056 270.895C638.106 271.111 638.216 271.539 638.216 271.539C638.696 271.636 639.216 271.025 639.696 271.125C639.746 271.339 639.856 271.77 639.916 271.983C640.386 272.08 640.916 271.469 641.396 271.569C643.996 271.992 646.436 273.607 649.086 273.325C649.086 273.325 649.246 273.969 649.296 274.185C651.476 274.725 651.576 272.399 653.376 271.435C653.326 271.219 653.216 270.79 653.166 270.575L653.806 270.397C653.746 270.182 653.696 269.966 653.646 269.751L654.496 269.514C654.176 269.134 654.276 268.654 654.756 267.837C654.706 267.621 654.596 267.192 654.546 266.977L655.336 266.752C654.476 263.461 653.596 260.136 652.936 256.852C652.826 256.424 653.306 255.602 653.196 255.175C652.406 252.869 652.826 250.913 653.196 248.742C653.306 248.253 652.926 247.667 652.826 247.238C652.986 246.043 653.136 244.851 653.566 243.813C653.666 243.324 653.086 242.799 653.196 242.309C655.096 234.423 655.036 226.85 656.036 218.993C656.136 217.584 655.826 216.294 655.936 214.875C656.146 212.978 656.786 210.961 656.786 209.125C657.356 201.378 657.566 193.966 658.886 186.473C661.156 173.654 659.936 161.364 659.336 147.971C658.546 133.672 660.386 120.058 655.346 106.993Z" fill="#F87E5C"/>
<path d="M65.171 412.543C69.376 407.879 72.815 403.22 77.252 398.917C85.759 390.554 91.47 381.005 97.301 370.853C98.336 368.86 99.128 367.29 99.871 365.24C100.178 364.515 101.011 364.208 101.314 363.484C104.321 356.543 105.496 349.554 107.146 342.502C107.477 340.213 107.748 338.225 108.488 336.175C110.818 329.4 113.507 322.751 116.545 316.26C117.772 313.362 119.458 311.184 120.98 308.345C121.529 307.198 121.785 305.993 122.343 304.845C123.009 303.878 123.903 303.27 124.568 302.303C125.055 301.455 125.068 300.674 125.553 299.828C126.639 298.315 128.251 297.221 129.106 295.342C129.238 294.96 129.402 294.59 129.596 294.235L129.298 294.437L128.952 293.898C123.609 295.981 118.737 294.392 113.79 293.885C109.788 293.257 106.195 292.856 102.181 293.005C101.415 293.01 100.811 293.676 100.045 293.681C96.697 292.863 94.547 294.323 91.71 294.704C90.942 294.709 90.303 294.111 89.652 294.293C85.265 295.466 81.4549 297.539 77.2479 298.593C60.2549 303.493 50.3469 319.046 44.9189 334.947L51.8829 428.94C55.6569 423.181 60.297 417.903 65.171 412.543Z" fill="#F87E5C"/>
<path d="M62.9679 271.739C68.9289 267.732 74.1789 263.914 79.1839 259.18C82.0629 256.48 85.7839 254.798 88.2409 251.589C89.5969 249.879 90.8349 248.437 91.9979 246.817C95.1759 242.29 98.4469 238.293 100.948 233.487C102.678 230.142 104.885 227.164 106.75 223.878C110.635 216.555 114.12 209.066 117.465 201.52C118.708 198.95 120.563 196.8 122.348 194.455C123.455 192.965 123.961 191.388 124.395 189.617C124.83 187.846 123.954 186.176 122.361 185.833C122.034 185.866 121.916 186.134 121.59 186.16C121.127 186.129 120.709 185.63 120.189 185.734C110.685 187.278 102.646 191.716 94.0849 196.26C93.3149 196.587 92.3349 196.664 91.5639 196.991C82.0229 201.612 73.5329 207.48 66.2609 215.341C60.2279 221.76 53.4889 227.232 47.6659 233.902C46.2509 235.75 45.0309 237.516 43.8049 239.283C41.8629 242.115 40.0819 244.963 38.4639 247.826L40.9859 281.873C43.6629 280.397 46.4339 279.445 49.0539 278.105C53.7949 275.87 58.5289 274.759 62.9679 271.739Z" fill="#F87E5C"/>
<path d="M43.8112 199.93C45.3132 198.852 47.1631 198.013 48.4921 196.811C54.4501 192.189 59.9361 187.508 66.1721 183.609C76.8331 176.96 84.9752 168.002 94.2932 158.814C104.104 148.904 115.088 141.405 121.417 129.08C123.031 125.954 124.766 122.648 127.244 120.125C128.209 119.466 128.887 118.083 129.798 117.122C129.276 116.762 128.528 115.975 128.108 116.216C124.427 117.111 120.889 117.043 117.319 115.891C116.673 115.709 115.887 116.49 115.365 116.127C114.546 115.824 113.729 115.523 112.839 115.701C110.395 116.658 108.722 117.617 106.276 118.574C103.414 119.773 101.524 122.177 99.5322 123.977C90.7742 131.963 81.4321 137.42 72.6951 144.622C70.0341 147.025 67.2791 148.824 64.7441 151.044C63.5381 152.066 62.9171 153.749 61.8741 154.89C61.4561 155.139 60.7391 155.43 60.4941 155.791C59.6371 157.052 58.5531 157.892 57.4001 159.214C56.0691 160.415 55.2641 161.978 54.2841 163.421C53.6191 164.021 52.9052 164.32 52.4152 165.042C50.6472 167.264 49.5752 169.97 47.5822 171.773C44.5062 174.414 42.0561 178.019 39.5521 181.324C39.2571 181.383 38.7861 181.323 38.4901 181.382C37.5801 182.343 37.1931 183.666 36.1101 184.512C35.1611 185.196 34.5571 186.113 33.9531 187.039L35.4121 206.744C37.2051 205.375 39.0151 204.011 40.9011 202.7C41.9921 201.853 42.7272 200.772 43.8112 199.93Z" fill="#F87E5C"/>
<path d="M31.7466 131.05C33.6246 126.78 35.4307 122.992 37.0167 118.782C37.4567 117.76 38.2946 117.281 38.7316 116.258C39.0486 115.417 39.0676 114.633 39.2626 113.972C40.9226 111.148 42.9356 108.563 44.3746 105.311C45.0586 103.928 46.2626 102.908 46.7736 101.404C49.9556 92.2076 55.8386 83.548 54.9816 73.1252C54.0736 62.435 56.5286 51.6613 54.8516 40.9395C43.0616 43.3061 33.3026 49.7587 24.3896 57.8428L30.1447 135.515C30.6527 134.027 31.1496 132.524 31.7466 131.05Z" fill="#F87E5C"/>
<path d="M35.5407 179.329C42.3307 169.705 48.6017 159.737 57.5317 151.865C58.8627 150.664 59.6167 148.8 60.9437 147.599C62.9377 145.799 63.9377 143.582 65.5817 141.53C66.2457 140.93 66.9617 140.631 67.6267 140.029C74.9087 129.699 84.0397 121.172 94.3037 113.973C95.3567 113.166 96.2787 112.192 97.0327 111.091C97.6967 110.491 98.7607 110.433 99.3017 110.012C104.268 104.97 107.075 98.9547 108.838 92.2177C109.226 90.8947 109.142 89.5039 110.194 87.5856C110.807 86.6858 110.435 85.3591 110.866 84.3373C111.55 82.9556 112.756 81.9339 113.266 80.4316C113.511 80.0705 112.816 79.5875 113.602 78.8064C113.253 78.565 112.681 77.9025 112.559 78.0862C106.241 80.6 100.177 80.106 94.4317 83.2824C93.4197 83.6404 92.3047 83.398 91.2927 83.7561C83.4727 87.3504 75.7447 89.6806 69.1217 94.9021C65.1557 97.7235 60.6687 100.18 57.1537 103.844C55.6327 105.706 54.2327 107.389 52.7087 109.246C46.7437 116.514 41.5257 124.568 36.7777 132.684C35.7967 134.127 35.3387 135.925 34.2357 137.553C33.2537 138.998 32.9767 140.929 32.5117 142.728C32.3177 143.39 31.6547 143.989 31.1627 144.722C31.1037 145.124 31.0797 145.735 30.9297 146.136L33.5287 181.22C34.2067 180.595 34.9137 179.991 35.5407 179.329Z" fill="#F87E5C"/>
<path d="M461.167 188.874C461.227 188.613 461.337 188.09 461.397 187.82C460.597 186.571 459.327 186.316 457.987 186.322L457.817 187.105C457.257 187.265 456.347 186.538 456.287 186.799C454.197 189.105 451.957 188.384 449.587 189.54C448.957 189.96 448.987 191.057 448.427 191.215C439.987 193.343 432.637 197.866 425.817 203.588C422.907 206.004 420.357 207.947 417.957 210.464C415.607 212.719 413.977 215.39 411.227 217.021L410.197 216.818C410.137 216.505 410.137 216.18 410.207 215.865C410.277 215.549 410.407 215.251 410.597 214.988C412.097 214.197 412.937 212.733 413.987 211.578C414.837 210.112 416.707 208.85 418.177 206.964C418.227 206.703 419.247 206.907 419.877 206.487C421.347 204.599 422.757 202.975 424.257 202.186C426.947 200.816 429.037 198.508 431.377 196.253C431.757 195.78 431.407 194.894 431.777 194.424C432.457 193.736 433.277 193.632 433.957 192.951C435.847 190.333 438.027 188.86 440.117 186.55C443.417 182.295 445.817 177.332 449.177 172.826C454.487 165.44 457.987 156.6 460.467 147.554C460.937 146.561 461.617 145.879 462.097 144.883C464.937 132.913 467.457 121.152 469.787 109.078C469.897 108.557 469.047 107.568 469.167 107.045C470.147 103.699 470.107 100.138 469.507 96.7562C469.047 93.938 465.937 93.5858 463.727 93.9616C462.597 94.2823 461.627 93.814 460.757 94.1835C459.567 94.7637 458.467 96.1789 457.727 97.1226C453.177 104.663 450.167 112.509 446.327 120.462C441.107 131.139 435.807 140.979 430.187 151.032C429.337 152.498 429.517 154.166 428.667 155.633C421.407 168.354 416.837 182.163 404.947 191.77C404.577 192.243 402.847 191.623 402.847 191.623C403.597 181.959 409.667 174.726 413.677 165.986C414.267 164.469 414.347 162.851 414.687 161.283C415.057 160.811 415.477 160.079 415.837 159.606C416.007 158.822 415.977 157.735 416.407 156.992C420.547 148.828 425.947 142.277 429.647 133.748C436.017 118.942 439.617 104.672 442.107 89.3543C442.857 84.5992 442.027 79.7978 438.257 76.3153C436.507 74.5993 433.667 75.3959 432.247 77.0204C428.917 80.1703 424.617 82.8519 423.857 87.6072C423.807 87.8688 422.977 87.9765 422.927 88.238C420.537 98.1176 419.477 107.986 416.067 117.668C412.607 127.606 408.947 137.231 406.507 147.371C406.087 148.105 405.097 148.995 404.927 149.78C402.827 160.807 397.977 171.011 390.027 179.507C389.977 179.769 388.957 179.565 388.497 179.2C388.557 178.94 388.667 178.417 388.727 178.145C388.327 177.521 387.927 176.894 387.107 177.004C387.697 175.487 386.847 174.498 386.957 173.975C387.827 166.251 388.937 158.562 392.157 151.028C393.277 148.254 393.277 145.8 394.397 143.028C394.777 142.556 395.447 141.874 395.557 141.351C396.067 138.999 396.717 137.221 397.557 135.754C399.637 131.004 399.637 126.086 401.467 121.274C403.357 116.2 404.167 111.183 405.037 105.905C405.257 104.85 404.667 103.922 404.887 102.876C408.177 88.8148 411.587 72.8732 401.327 61.2723C400.667 60.5958 399.137 60.2893 398.237 59.5616C394.377 57.6993 390.557 61.8429 389.517 65.4504C388.027 71.1486 386.537 76.8468 386.067 82.7495C385.597 88.6521 383.207 93.6247 383.247 99.6308C383.437 101.156 383.377 102.71 383.057 104.225C382.937 104.749 383.537 105.685 383.427 106.208C382.917 108.561 382.727 110.702 383.047 112.947C383.127 113.782 382.647 114.776 382.477 115.561C382.627 116.134 382.967 117.02 382.847 117.544C382.657 119.685 381.647 121.936 381.447 124.083C381.537 124.919 381.827 126.066 381.907 126.902C381.717 129.043 380.697 131.294 380.507 133.441C379.007 147.86 381.817 166.95 369.057 175.582C366.257 177.474 361.867 174.411 361.737 170.026C361.177 159.009 361.327 148.408 363.117 137.59C365.057 127.348 367.957 117.57 369.387 107.223C369.297 106.388 369.017 105.24 368.927 104.405C369.737 99.388 371.577 94.5758 371.877 89.4535C372.157 85.6921 373.197 82.0846 373.727 78.3759C373.637 77.5405 373.347 76.3929 373.267 75.5575C373.627 72.6314 374.697 70.1208 374.807 67.1461C374.837 65.7897 375.167 64.2202 374.777 63.5957C372.407 58.4887 367.317 59.9215 363.517 60.2509C363.007 60.1497 362.047 59.6836 361.737 59.8945C353.987 66.2493 353.127 76.4345 351.477 85.371C351.507 86.468 351.847 87.354 351.877 88.451C351.627 90.8538 350.807 93.415 350.307 95.7674C350.337 96.8644 350.677 97.7502 350.457 98.7966C348.547 107.682 348.417 116.925 349.377 126.112C349.347 127.47 348.547 128.672 348.527 130.032C348.167 149.041 358.007 167.641 350.817 185.01C342.547 183.899 343.777 173.239 341.437 166.775C341.297 166.201 341.717 165.467 341.827 164.946C341.337 161.031 340.037 157.224 339.597 153.048C338.047 142.924 335.667 132.909 334.697 122.626C333.217 105.975 337.857 90.5492 340.477 74.7132C341.567 68.3908 338.197 63.0782 334.637 58.5501C334.037 57.6133 331.487 57.1034 331.067 57.8352C312.877 80.63 317.057 110.64 318.387 137.894C319.067 148.387 319.337 158.255 318.877 169.067C318.647 170.122 319.557 170.839 319.847 171.987C320.217 173.97 320.077 175.849 320.707 177.885C321.287 180.18 321.537 182.686 322.107 184.982C323.877 191.614 324.567 198.287 328.097 204.172C328.307 204.596 328.507 205.018 328.697 205.438C328.757 205.513 328.797 205.603 328.817 205.699C329.307 206.773 329.727 207.832 330.157 208.878C332.977 212.546 336.097 216.227 338.917 219.426C342.777 223.742 346.897 228.114 352.277 230.281C352.477 230.593 352.617 231.167 352.877 231.217C356.137 232.143 359.557 232.284 362.657 233.995C366.007 235.485 369.667 236.217 373.357 236.14C374.687 236.135 375.647 234.147 377.267 235.287C377.657 233.458 378.617 231.469 378.187 229.747C377.897 228.6 378.387 227.606 378.297 226.771L377.267 226.567C376.527 225.057 376.357 223.386 375.667 221.614L374.637 221.41C374.697 221.149 374.807 220.628 374.867 220.356C373.787 220.413 373.137 219.736 372.487 219.061L372.707 218.006C370.157 215.04 365.837 212.816 366.077 207.957C366.197 207.436 365.037 206.658 364.947 205.822C365.367 202.635 365.787 199.447 367.167 196.723C368.917 193.529 373.117 196.28 376.227 196.634C376.487 196.685 376.567 197.52 377.027 197.883C382.407 200.053 388.227 203.943 390.107 210.045C390.707 210.982 391.927 211.499 392.517 212.436C393.457 214.26 394.387 216.083 395.387 217.646C397.627 220.821 399.757 224.519 403.477 225.808C407.897 227.512 412.287 228.119 416.937 228.783C417.187 228.836 417.867 228.154 418.127 228.205C421.497 228.608 425.087 227.964 427.637 226.021C436.657 219.923 443.357 212.269 451.447 204.349C452.187 203.405 453.427 202.564 454.617 201.986C455.287 201.298 455.377 199.684 455.937 199.524C460.637 197.466 461.277 193.234 461.927 189.002L461.167 188.874Z" fill="#F87E5C"/>
<path d="M516.817 165.523C516.197 159.918 515.477 154.328 514.757 148.737C513.397 138.126 512.037 127.513 510.677 116.899C510.487 115.428 510.287 113.935 510.007 112.472C508.547 112.359 507.247 112.544 506.837 112.952C503.457 116.028 501.597 119.693 500.667 123.674C499.967 136.101 501.987 148.465 506.567 159.875C508.197 163.903 510.777 168.219 514.537 169.731C514.977 169.106 515.387 168.452 515.747 167.774C516.157 167.049 516.507 166.297 516.817 165.523Z" fill="#F87E5C"/>
<path d="M195.367 13.0498C198.957 17.2756 202.617 21.434 206.277 25.605L227.127 49.2987C228.097 50.3943 229.077 51.5023 230.117 52.5343C231.407 51.7973 232.407 50.9103 232.527 50.3432C233.697 45.9029 233.257 41.8546 231.867 38.0713C225.657 27.5195 217.197 18.5593 207.097 11.8363C203.527 9.47105 198.987 7.41565 194.987 8.31225C194.957 9.07575 194.967 9.83935 195.037 10.5979C195.087 11.4237 195.197 12.2431 195.367 13.0498Z" fill="#F87E5C"/>
<path d="M119.06 235.964C115.996 239.369 112.988 242.845 109.984 246.31L92.8641 266.05C92.0711 266.956 91.2722 267.891 90.5352 268.861C91.2152 269.837 91.9872 270.553 92.4412 270.586C96.0272 271.05 99.1832 270.236 102.061 268.676C109.91 262.406 116.34 254.471 120.886 245.443C122.474 242.249 123.765 238.296 122.757 235.124C122.151 235.182 121.549 235.282 120.954 235.424C120.312 235.558 119.679 235.739 119.06 235.964Z" fill="#F87E5C"/>
</g>
</svg>
