<svg id="Warstwa_1" data-name="Warstwa 1" xmlns="http://www.w3.org/2000/svg" viewBox="0 0 359.99 93.49" width="127" height="32"><defs><style>.cls-1{fill:#33629a;fill-rule:evenodd;}</style></defs><title>logo__forbes</title><path class="cls-1" d="M326.76,93.43c-4.61-.49-11.95-2.1-14.39-3.15l-1.19-.51L311,83.85c-.08-3.25-.19-7.6-.22-9.66l-.07-3.75.72-.34a5.51,5.51,0,0,1,1.76-.39l1.05,0,.89,2.2c3.49,8.58,7.58,13.21,12.92,14.62a17.24,17.24,0,0,0,7.37,0A9.17,9.17,0,0,0,342,77.42c0-5.17-2.82-7.66-13.57-11.86-6.66-2.6-9-3.94-11.75-6.77-3-3-4.41-6.53-4.68-11.37a19.06,19.06,0,0,1,5.56-15c4.08-4.23,9.38-6.52,16.61-7.18,6.35-.58,16.12.77,21.23,2.94l.93.39.17,5.27c.09,2.9.19,6.78.21,8.64l0,3.36-1.25.46c-2,.74-2.11.65-3.21-2.27C349.19,35.85,345.6,32,340,30.8c-3.41-.72-6.26.05-8.33,2.26a8.24,8.24,0,0,0-2.39,5.84,7.18,7.18,0,0,0,2,6.16c2.1,2.29,5.54,4.28,12.4,7.14,8.39,3.51,12.4,6.49,14.57,10.84,1.42,2.83,1.82,5.08,1.68,9.43a16.16,16.16,0,0,1-1,6.12c-2.42,7.14-7.88,11.84-16.31,14-2.86.75-3.27.78-8.95.85-3.27,0-6.42,0-7,0Zm-111.54-.74c7.86-1.18,13.63-3.88,18.51-8.67,7.06-6.92,10.46-16.69,10-28.72A32.88,32.88,0,0,0,239.91,40c-3.48-6.81-9.43-11.58-16.19-13a28.18,28.18,0,0,0-16.55,2.1,15.12,15.12,0,0,1-2.63,1.05c-.33,0-.37-1.92-.28-15.09L204.35,0l-1,.21L190.37,2.62C183.82,3.83,178.21,4.88,177.9,5c-.47.11-.56.29-.51,1.1s.14,1,1.09,1.19c3.28.73,3.86,1,5.08,2.24,1.5,1.55,2.17,3.52,2.62,7.63.35,3.28.43,59.76.09,68.09l-.2,5,2.67.57c10.09,2.16,20.16,2.9,26.48,2Zm71.29,0a31.32,31.32,0,0,0,16.15-7.87c2.32-2.2,3.09-3.26,2.77-3.82-.86-1.48-.82-1.48-3-.13A18.07,18.07,0,0,1,293,84a23.29,23.29,0,0,1-13.36-2.42,21.12,21.12,0,0,1-7.61-7.51c-2.23-3.95-3.43-8.56-3.79-14.5-.15-2.49-.12-3.11.17-3.29s8.83-.23,19.32-.23h19v-.75a61.64,61.64,0,0,0-1.06-8.67c-2-9.65-7.33-16.53-14.91-19.29a26.58,26.58,0,0,0-9.64-1.57q-13.37,0-21.82,8.77c-4.49,4.66-7.16,9.89-8.78,17.24-.49,2.22-.58,3.37-.58,8s.09,5.81.56,7.94c3,13.58,12,22.52,24.78,24.81a38.57,38.57,0,0,0,11.25.1ZM103,92.35a30,30,0,0,0,11.52-5.16c8-5.94,12.32-15.06,12.72-26.59.4-11.37-3-21.06-9.66-27.3-5.38-5.08-12.16-7.51-20.93-7.51-9.29,0-16.77,2.88-22.53,8.68-6.17,6.2-9.43,14.86-9.43,25,0,10.55,3,19.06,8.66,25A25.38,25.38,0,0,0,84,91.33a40,40,0,0,0,6.86,1.59c.36.07,2.74.08,5.31,0a32.86,32.86,0,0,0,6.86-.6ZM53,62.15l-.6-2.45c-1.13-4.62-3.3-7.93-6-9.12-1.23-.54-4.3-.86-10.22-1l-2.78-.08V55.3c0,6.37.35,15,.79,19.65.63,6.52,2.3,10.12,5.29,11.42a23.2,23.2,0,0,0,4,.9,22.92,22.92,0,0,1,3.43.68c.63.33.67,3.7,0,3.94s-46.16.17-46.63,0C.13,91.79,0,91.14,0,90c0-2.15-.14-2,4-2.82,3.18-.59,4.32-1.19,5.73-3,2.72-3.58,3.31-10.45,3.32-38.77,0-26.59-.51-32.18-3.33-36.29C8.5,7.21,6.4,6.22,2.87,5.8L.15,5.48.07,3.35,0,1.23l.85-.15C1.32,1,17.77,1,37.41,1l35.71.08.17,1c.09.57.24,6.41.33,13L73.79,27,72,27.59c-2.77.84-2.75.85-4-2.44C64.89,17,61.38,12.37,56.57,10c-3.31-1.63-4.85-1.83-14.2-1.83H34.22l-.14,1.36c-.26,2.55-.68,18.94-.68,26.66v7.7l2.39,0c1.32,0,3.91-.1,5.77-.21,2.79-.17,3.62-.32,4.79-.86,2.87-1.32,4.82-4.25,6-9L53,31.36l4.23-.15V62.3Zm74.93,29.68c-.23-.15-.31-.75-.26-2l.08-1.78.91-.2,2.38-.47c2.5-.46,3.94-1.82,4.75-4.49.66-2.17.95-9.11,1-23,0-17.06-.34-21.08-2.06-23.37-.94-1.23-1.61-1.59-3.88-2l-2.62-.51c-.51-.11-.58-.28-.58-1.55s.08-1.45.58-1.66c.78-.32,26.42-5.45,27.24-5.45h.64l-.13,3.82c-.07,2.1-.18,5.16-.24,6.8l-.12,3,.92-1.67c3-5.37,6.31-8.69,10.75-10.73A14.61,14.61,0,0,1,174.31,25c3.57,0,7.13,1.16,7.13,2.32,0,.79-6.28,17.39-6.63,17.52a10.07,10.07,0,0,1-2.72-1,18.21,18.21,0,0,0-7.91-2c-3.15,0-6.66,1.17-8.05,2.66-.59.63-.59.67-.74,10.18s.17,20.9.69,25.52c.46,3.94,1.5,5.88,3.66,6.78a39.52,39.52,0,0,0,6.77.93,5.11,5.11,0,0,1,.13,2l-.08,2L147.41,92c-10.42,0-19.12,0-19.49-.15ZM98.83,88.29c1.83-.55,4.1-2.67,5.3-5,2.49-4.76,3.6-11.8,3.63-23,0-14-2.16-22.92-6.8-27.58-1.94-2-3.32-2.57-5.81-2.57-5.52,0-9,5.78-10.41,17.13a129.68,129.68,0,0,0,0,22.21c2,14.12,7,20.86,14.1,18.76ZM211,88.16a9.61,9.61,0,0,0,4.91-2.51c3.93-3.54,6.88-10.83,8-19.87a76.3,76.3,0,0,0-.11-15.15c-1.42-8.31-4.47-13.77-8.92-16a7,7,0,0,0-4.32-1,14.28,14.28,0,0,0-4,.5l-1.72.51-.12,9.45c-.17,12.12.23,42.46.56,43.33.21.55.44.67,1.49.75A12.19,12.19,0,0,0,211,88.16ZM283.13,51l4.5-.15-.16-3.2c-.57-11.28-3.33-17.44-7.81-17.44-4.86,0-8.75,6.26-10.37,16.68a30.6,30.6,0,0,0-.36,3.38v1.05l4.85-.08C276.44,51.19,280.65,51.08,283.13,51Z"/></svg>
