<svg width="133" height="30" viewBox="0 0 133 30" fill="none" xmlns="http://www.w3.org/2000/svg">
<title>logo__chipper-white-color</title>
<path d="M14.5784 0C6.52693 0 0 6.3667 0 14.2206C0 22.0745 6.52693 28.4412 14.5784 28.4412C22.63 28.4412 29.1569 22.0745 29.1569 14.2206C29.1569 6.3667 22.63 0 14.5784 0ZM15.8862 23.575C15.8811 23.575 15.8777 23.575 15.8726 23.575C15.847 23.575 15.8231 23.5666 15.8043 23.55C15.7821 23.5317 15.7701 23.5033 15.7701 23.475V19.5248C15.7701 19.4781 15.8026 19.4382 15.8487 19.4282C17.8376 18.9719 19.4237 17.4231 19.8932 15.4813C19.9035 15.4363 19.9444 15.4047 19.9922 15.4047H24.0402C24.0692 15.4047 24.0982 15.4163 24.117 15.438C24.1358 15.4596 24.146 15.4879 24.1409 15.5179C23.5707 19.7046 20.1749 23.0171 15.8862 23.575ZM24.0453 13.1264C24.0436 13.1264 24.0419 13.1264 24.0402 13.1264H19.9905C19.9427 13.1264 19.9017 13.0948 19.8915 13.0498C19.3093 10.635 17.1325 8.94969 14.5989 8.94969C11.5924 8.94969 9.1476 11.3345 9.1476 14.2672C9.1476 16.7386 10.8754 18.862 13.3509 19.4298C13.397 19.4398 13.4295 19.4798 13.4295 19.5264V23.4767C13.4295 23.505 13.4175 23.5317 13.3953 23.5516C13.3765 23.5683 13.3526 23.5766 13.327 23.5766C13.3219 23.5766 13.3185 23.5766 13.3134 23.5766C8.55176 22.9554 4.96135 18.9536 4.96135 14.2689C4.96135 9.08458 9.28589 4.86621 14.5989 4.86621C19.393 4.86621 23.487 8.35515 24.1375 12.9849C24.1443 12.9982 24.1477 13.0132 24.1477 13.0282C24.1477 13.0815 24.1016 13.1264 24.0453 13.1264Z" fill="white"/>
<path d="M37.562 14.2422C37.562 12.9233 37.8181 11.6659 38.332 10.4702C38.8459 9.27445 39.5442 8.24192 40.4302 7.3726C41.3163 6.50327 42.3817 5.81048 43.6297 5.29422C44.876 4.77962 46.2008 4.52148 47.6042 4.52148C49.0076 4.52148 50.3239 4.78128 51.5532 5.30088C52.7824 5.82047 53.8631 6.54657 54.7919 7.47751L52.6612 9.81569C51.3432 8.31519 49.6564 7.56411 47.6025 7.56411C46.3767 7.56411 45.2533 7.86887 44.2306 8.48006C43.208 9.09125 42.4073 9.90895 41.8285 10.9348C41.2497 11.9607 40.9595 13.0731 40.9595 14.2672C40.9595 15.4713 41.2583 16.5804 41.8541 17.5946C42.4499 18.6088 43.2592 19.4115 44.2819 19.9994C45.3045 20.589 46.4211 20.8837 47.6298 20.8837C48.5176 20.8837 49.3986 20.6922 50.2727 20.3092C51.1468 19.9261 51.8929 19.4249 52.5109 18.807L54.5136 21.1319C53.5831 22.0062 52.5331 22.6906 51.3619 23.1853C50.1907 23.6799 48.9461 23.928 47.6281 23.928C45.8116 23.928 44.1333 23.505 42.5934 22.6607C41.0534 21.8163 39.831 20.6489 38.9227 19.1601C38.0161 17.6712 37.562 16.0325 37.562 14.2422ZM56.733 23.5933V4.8429H59.9274V12.4536C60.2398 12.2221 60.5044 12.0423 60.7195 11.9141C60.9347 11.7858 61.2676 11.6576 61.7149 11.5294C62.1622 11.4011 62.6488 11.3362 63.1729 11.3362C63.8661 11.3362 64.508 11.4394 65.1004 11.6459C65.6928 11.8524 66.2238 12.1605 66.6984 12.5735C67.1713 12.9866 67.5418 13.5411 67.8082 14.2372C68.0745 14.9334 68.2077 15.7394 68.2077 16.6554V23.5933H65.0116V17.17C65.0116 15.2764 64.1614 14.3288 62.4627 14.3288C60.7725 14.3288 59.9274 15.2598 59.9274 17.12V23.5916H56.733V23.5933ZM70.9854 8.98634C70.5961 8.60663 70.4015 8.14199 70.4015 7.58909C70.4015 7.03619 70.5961 6.57322 70.9854 6.19684C71.3747 5.82214 71.8561 5.63395 72.4315 5.63395C72.9983 5.63395 73.4712 5.81881 73.8519 6.19018C74.2326 6.56156 74.4222 7.02786 74.4222 7.58743C74.4222 8.14866 74.2326 8.61662 73.8519 8.99133C73.4712 9.36604 72.9983 9.55423 72.4315 9.55423C71.8561 9.55589 71.373 9.36604 70.9854 8.98634ZM70.8198 23.5933V11.5593H74.0141V23.5933H70.8198ZM76.8943 29.9999V11.5593H80.0886V12.4536C81.0276 11.7092 82.1681 11.3362 83.5117 11.3362C85.3248 11.3362 86.8665 11.9474 88.1367 13.1681C89.4069 14.3888 90.042 15.8743 90.042 17.6246C90.042 18.762 89.7535 19.8146 89.1748 20.7821C88.596 21.7497 87.8055 22.5158 86.8016 23.0803C85.7978 23.6449 84.7017 23.9264 83.5117 23.9264C82.1681 23.9264 81.0259 23.555 80.0886 22.8139V29.9999H76.8943ZM80.0903 17.7728C80.133 18.6371 80.4847 19.3799 81.1488 20.0011C81.813 20.6223 82.6 20.9337 83.5134 20.9337C84.4439 20.9337 85.2412 20.6073 85.9104 19.9528C86.578 19.2983 86.9126 18.5222 86.9126 17.6263C86.9126 16.737 86.578 15.9659 85.9104 15.3114C85.2429 14.6569 84.4439 14.3305 83.5134 14.3305C82.6 14.3305 81.813 14.6436 81.1488 15.2681C80.4847 15.8943 80.133 16.6337 80.0903 17.4897V17.7728ZM91.8688 29.9999V11.5593H95.0632V12.4536C96.0022 11.7092 97.1426 11.3362 98.4862 11.3362C100.299 11.3362 101.841 11.9474 103.111 13.1681C104.381 14.3888 105.017 15.8743 105.017 17.6246C105.017 18.762 104.728 19.8146 104.149 20.7821C103.571 21.7497 102.78 22.5158 101.776 23.0803C100.772 23.6449 99.6762 23.9264 98.4862 23.9264C97.1426 23.9264 96.0005 23.555 95.0632 22.8139V29.9999H91.8688ZM95.0649 17.7728C95.1075 18.6371 95.4592 19.3799 96.1234 20.0011C96.7875 20.6223 97.5746 20.9337 98.488 20.9337C99.4184 20.9337 100.216 20.6073 100.885 19.9528C101.553 19.2983 101.887 18.5222 101.887 17.6263C101.887 16.737 101.553 15.9659 100.885 15.3114C100.217 14.6569 99.4184 14.3305 98.488 14.3305C97.5746 14.3305 96.7875 14.6436 96.1234 15.2681C95.4592 15.8943 95.1075 16.6337 95.0649 17.4897V17.7728ZM106.249 17.6929C106.249 16.8435 106.399 16.0342 106.7 15.2631C107 14.492 107.42 13.8159 107.962 13.2347C108.503 12.6535 109.177 12.1922 109.983 11.8491C110.791 11.5077 111.672 11.3362 112.626 11.3362C113.809 11.3362 114.878 11.6243 115.834 12.2022C116.788 12.78 117.529 13.5444 118.053 14.497C118.577 15.4496 118.839 16.4905 118.839 17.6196C118.839 17.9743 118.813 18.3041 118.762 18.6088H109.355C109.541 19.3632 109.935 19.9661 110.54 20.4174C111.144 20.8687 111.894 21.0936 112.79 21.0936C113.381 21.0936 113.947 20.9836 114.489 20.7622C115.03 20.5407 115.474 20.2076 115.82 19.7646L118 21.4533C117.442 22.2243 116.703 22.8272 115.781 23.2669C114.859 23.7049 113.871 23.9247 112.814 23.9247C111.596 23.9247 110.485 23.6532 109.479 23.1087C108.474 22.5641 107.683 21.8147 107.108 20.8571C106.538 19.9028 106.249 18.847 106.249 17.6929ZM109.471 16.3206H115.62C115.528 15.7111 115.194 15.1998 114.618 14.7868C114.043 14.3755 113.372 14.169 112.602 14.169C111.866 14.169 111.221 14.3655 110.663 14.7568C110.104 15.1482 109.706 15.6695 109.471 16.3206ZM120.826 23.5933V11.5593H124.02V12.4536C124.611 12.024 125.248 11.7292 125.929 11.5727C126.61 11.4161 127.554 11.3362 128.763 11.3362V14.3288C127.961 14.3288 127.273 14.3738 126.702 14.4654C126.132 14.5553 125.673 14.6819 125.326 14.8418C124.98 15.0016 124.71 15.2231 124.515 15.5029C124.321 15.7827 124.189 16.0775 124.123 16.3856C124.054 16.6937 124.022 17.0717 124.022 17.5164V23.5933H120.826ZM128.763 6.5499C128.763 6.32008 128.809 6.10025 128.901 5.89208C128.994 5.68391 129.117 5.50405 129.272 5.35417C129.427 5.20429 129.612 5.08438 129.825 4.99611C130.04 4.90785 130.264 4.86289 130.498 4.86289C130.732 4.86289 130.955 4.90785 131.169 4.99611C131.382 5.08604 131.565 5.20595 131.718 5.35583C131.872 5.50572 131.995 5.68724 132.085 5.89541C132.176 6.10358 132.222 6.32008 132.222 6.54657C132.222 6.77306 132.176 6.98956 132.085 7.1994C131.993 7.40923 131.872 7.58909 131.717 7.74064C131.563 7.89219 131.379 8.0121 131.165 8.10369C130.952 8.19362 130.728 8.23859 130.493 8.23859C130.18 8.23859 129.892 8.16364 129.625 8.01376C129.361 7.86388 129.149 7.65904 128.994 7.39924C128.84 7.13944 128.763 6.85633 128.763 6.5499ZM129.089 6.5499C129.089 6.73309 129.125 6.90629 129.198 7.07283C129.272 7.23937 129.371 7.38259 129.496 7.50416C129.62 7.62573 129.769 7.72232 129.943 7.7956C130.117 7.86721 130.3 7.90385 130.494 7.90385C130.75 7.90385 130.988 7.84223 131.203 7.72066C131.418 7.59909 131.589 7.43421 131.712 7.22604C131.836 7.01954 131.898 6.79305 131.898 6.54824C131.898 6.3001 131.836 6.06861 131.712 5.85711C131.589 5.64561 131.418 5.47574 131.199 5.35084C130.983 5.22593 130.745 5.16265 130.489 5.16265C130.233 5.16265 129.997 5.22593 129.782 5.35084C129.567 5.47574 129.398 5.64394 129.275 5.85711C129.151 6.06861 129.089 6.3001 129.089 6.5499ZM129.815 7.50582V5.58399H130.416C130.491 5.58399 130.556 5.58565 130.609 5.58732C130.662 5.58899 130.721 5.59565 130.788 5.60397C130.855 5.6123 130.911 5.62396 130.955 5.63895C131.001 5.65394 131.047 5.67392 131.094 5.70223C131.14 5.72888 131.177 5.76218 131.206 5.79882C131.235 5.83546 131.257 5.88209 131.276 5.93871C131.293 5.99534 131.304 6.05862 131.304 6.12856C131.304 6.43832 131.141 6.62818 130.815 6.70145L131.304 7.51082H130.909L130.438 6.7281H130.144V7.50749H129.815V7.50582ZM130.144 6.43999H130.503C130.573 6.43999 130.634 6.43666 130.684 6.43C130.733 6.42334 130.781 6.41168 130.826 6.39169C130.872 6.37337 130.906 6.3434 130.93 6.30343C130.954 6.26346 130.966 6.2135 130.966 6.15188C130.966 6.04197 130.928 5.96702 130.851 5.93039C130.774 5.89375 130.658 5.87376 130.503 5.87376H130.144V6.43999Z" fill="white"/>
</svg>
