<svg id="Warstwa_1" data-name="Warstwa 1" xmlns="http://www.w3.org/2000/svg" xmlns:xlink="http://www.w3.org/1999/xlink" viewBox="0 0 51 65" width="51" height="65"><defs><style>.cls-1,.cls-6,.cls-8,.cls-9{fill:none;}.cls-2{clip-path:url(#clip-path);}.cls-3{fill:#f89728;}.cls-4{fill:#b30838;}.cls-5{fill:#010101;}.cls-6,.cls-9{stroke:#000;}.cls-6,.cls-8,.cls-9{stroke-miterlimit:10;}.cls-6,.cls-8{stroke-width:0.17px;}.cls-7{fill:#c9cacc;}.cls-8{stroke:#c9cacc;}.cls-9{stroke-linecap:round;stroke-width:0.42px;}</style><clipPath id="clip-path"><rect class="cls-1" width="51" height="65"/></clipPath></defs><title>logo__roma</title><g class="cls-2"><path d="M50.16,13.76,50,12.83l-.95-.2A48,48,0,0,1,37.17,8.28C29.25,3.91,26.58,1.16,26.56,1.13L25.5,0,24.44,1.13s-2.7,2.79-10.61,7.15A48.1,48.1,0,0,1,2,12.63l-.94.2-.18.93a47.29,47.29,0,0,0,0,17.47l.48,2.3.14.53a47.62,47.62,0,0,0,7.94,16.8A51.29,51.29,0,0,0,24.76,64.63l.74.44.73-.44A51.17,51.17,0,0,0,41.64,50.86a47.82,47.82,0,0,0,8-16.8l.61-2.83A47.29,47.29,0,0,0,50.16,13.76Z"/><path class="cls-3" d="M48.74,14A49.05,49.05,0,0,1,36.47,9.51c-8.35-4.6-11-7.42-11-7.42s-2.62,2.82-11,7.42A49.19,49.19,0,0,1,2.25,14a45.91,45.91,0,0,0,.3,18.62H48.44A45.91,45.91,0,0,0,48.74,14Z"/><path class="cls-4" d="M25.5,63.42A48,48,0,0,0,48.44,32.64H2.55A48,48,0,0,0,25.5,63.42Z"/><path class="cls-5" d="M20.13,52.25v-.71c0-.13,0-.19-.08-.19a4,4,0,0,0-.63.26l-.08,0a.07.07,0,0,1,0-.06s0-.06.05-.08l1.27-.83a.21.21,0,0,1,.14-.07s.06.06.06.11,0,.58,0,1.41v1c0,.53,0,1,0,1.23s.05.25.22.29l.36,0a.06.06,0,0,1,.05.06s0,0-.09,0H19.5c-.05,0-.09,0-.09,0s0-.06.05-.06a3.62,3.62,0,0,0,.43,0c.18,0,.21-.11.22-.28s0-.7,0-1.23Z"/><path class="cls-6" d="M20.13,52.25v-.71c0-.13,0-.19-.08-.19a4,4,0,0,0-.63.26l-.08,0a.07.07,0,0,1,0-.06s0-.06.05-.08l1.27-.83a.21.21,0,0,1,.14-.07s.06.06.06.11,0,.58,0,1.41v1c0,.53,0,1,0,1.23s.05.25.22.29l.36,0a.06.06,0,0,1,.05.06s0,0-.09,0H19.5c-.05,0-.09,0-.09,0s0-.06.05-.06a3.62,3.62,0,0,0,.43,0c.18,0,.21-.11.22-.28s0-.7,0-1.23Z"/><path class="cls-5" d="M25,52.06a3.34,3.34,0,0,1-2,2.79.16.16,0,0,1-.1,0,.05.05,0,0,1,0,0s0-.07.06-.09a3.06,3.06,0,0,0,1.42-2.52c0-1-.41-1.38-.83-1.38s-.65.35-.65.81c0,.83.54,1,.73,1A.92.92,0,0,0,24,52.6c.06,0,.08-.06.11-.06a0,0,0,0,1,0,.05l0,.06a1,1,0,0,1-.72.25,1,1,0,0,1-1.11-1,1.28,1.28,0,0,1,1.4-1.27A1.35,1.35,0,0,1,25,52.06Z"/><path class="cls-6" d="M25,52.06a3.34,3.34,0,0,1-2,2.79.16.16,0,0,1-.1,0,.05.05,0,0,1,0,0s0-.07.06-.09a3.06,3.06,0,0,0,1.42-2.52c0-1-.41-1.38-.83-1.38s-.65.35-.65.81c0,.83.54,1,.73,1A.92.92,0,0,0,24,52.6c.06,0,.08-.06.11-.06a0,0,0,0,1,0,.05l0,.06a1,1,0,0,1-.72.25,1,1,0,0,1-1.11-1,1.27,1.27,0,0,1,1.4-1.26A1.34,1.34,0,0,1,25,52.06Z"/><path class="cls-5" d="M25.57,54.75a.08.08,0,0,1-.07-.08s.05-.09.11-.14c.76-.67,1.85-1.51,1.85-2.66,0-.86-.48-1-.75-1a.75.75,0,0,0-.58.2.85.85,0,0,0-.23.51c0,.06,0,.11-.07.11s0,0,0-.11,0-.49,0-.65,0-.07.07-.11a2,2,0,0,1,1-.21c1,0,1.37.53,1.37,1.16,0,1-1.17,2-1.88,2.53,0,0,0,0,0,0h.37c.09,0,.73,0,.94,0a.65.65,0,0,0,.62-.49c0-.06,0-.08.06-.08s.05,0,.05.1a6.67,6.67,0,0,1-.16.77c0,.15-.13.17-.48.17Z"/><path class="cls-6" d="M25.57,54.75a.08.08,0,0,1-.07-.08s.05-.09.11-.14c.76-.67,1.85-1.51,1.85-2.66,0-.86-.48-1-.75-1a.75.75,0,0,0-.58.2.85.85,0,0,0-.23.52s0,.1-.07.1,0,0,0-.1,0-.5,0-.66,0-.07.07-.11a2,2,0,0,1,1-.2c1,0,1.37.52,1.37,1.15,0,1-1.17,2-1.88,2.53,0,0,0,0,0,0h.37c.09,0,.73,0,.94,0a.65.65,0,0,0,.62-.49c0-.06,0-.08.06-.08s.05,0,.05.1a6.67,6.67,0,0,1-.16.77c0,.15-.13.17-.48.17Z"/><path class="cls-5" d="M31.56,50.68c.11,0,.13,0,.13,0a.29.29,0,0,1,0,.1,12.6,12.6,0,0,0-1.39,3.49,1.33,1.33,0,0,0,0,.2c0,.11-.44.33-.69.33-.06,0-.07,0-.07-.06a1.11,1.11,0,0,1,0-.23,20.69,20.69,0,0,1,1.61-3.37H29.73a1,1,0,0,0-.51.1.5.5,0,0,0-.18.32s0,.07-.05.07,0,0,0-.08c0-.2.08-.84.08-.89s0-.08.06-.08a2.88,2.88,0,0,0,.74.06Z"/><path class="cls-6" d="M31.56,50.68c.11,0,.13,0,.13,0a.29.29,0,0,1,0,.1,12.6,12.6,0,0,0-1.39,3.49,1.33,1.33,0,0,0,0,.2c0,.11-.44.33-.69.33-.06,0-.07,0-.07-.06a1.11,1.11,0,0,1,0-.23,20.69,20.69,0,0,1,1.61-3.37H29.73a1,1,0,0,0-.51.1.5.5,0,0,0-.18.32s0,.07-.05.07,0,0,0-.08c0-.2.08-.84.08-.89s0-.08.06-.08a2.88,2.88,0,0,0,.74.06Z"/><path class="cls-7" d="M20.13,52.06v-.71c0-.13,0-.2-.08-.2a4,4,0,0,0-.63.26l-.08,0a.06.06,0,0,1,0-.06.09.09,0,0,1,.05-.07l1.27-.84a.27.27,0,0,1,.14-.07s.06.06.06.12,0,.58,0,1.41v1c0,.52,0,1,0,1.22s.05.26.22.3l.36,0s.05,0,.05.06,0,0-.09,0l-.91,0-.93,0c-.06,0-.1,0-.1,0s0-.06.05-.06a3.62,3.62,0,0,0,.43,0c.18,0,.21-.11.22-.29s0-.7,0-1.22Z"/><path class="cls-8" d="M20.13,52.06v-.71c0-.13,0-.2-.08-.2a4,4,0,0,0-.63.26l-.08,0a.06.06,0,0,1,0-.06.09.09,0,0,1,.05-.07l1.27-.84a.27.27,0,0,1,.14-.07s.06.06.06.12,0,.58,0,1.41v1c0,.52,0,1,0,1.22s.05.26.22.3l.36,0s.05,0,.05.06,0,0-.09,0l-.91,0-.93,0c-.06,0-.1,0-.1,0s0-.06.05-.06a3.62,3.62,0,0,0,.43,0c.18,0,.21-.11.22-.29s0-.7,0-1.22Z"/><path class="cls-7" d="M25,51.87a3.36,3.36,0,0,1-2,2.79l-.1,0a.06.06,0,0,1,0-.06s0-.07.06-.09A3,3,0,0,0,24.33,52c0-1-.41-1.39-.83-1.39s-.65.35-.65.81c0,.83.54,1,.72,1a.94.94,0,0,0,.38-.06c.05,0,.08-.06.1-.06a0,0,0,0,1,.05,0,.11.11,0,0,1,0,.06,1,1,0,0,1-.72.25,1,1,0,0,1-1.11-1.05,1.27,1.27,0,0,1,1.39-1.26A1.35,1.35,0,0,1,25,51.87Z"/><path class="cls-8" d="M25,51.87a3.36,3.36,0,0,1-2,2.79l-.1,0a.06.06,0,0,1,0-.06s0-.07.06-.09A3,3,0,0,0,24.33,52c0-1-.41-1.39-.83-1.39s-.65.35-.65.81c0,.83.54,1,.72,1a.94.94,0,0,0,.38-.06c.05,0,.08-.06.1-.06a0,0,0,0,1,.05,0,.11.11,0,0,1,0,.06,1,1,0,0,1-.72.25,1,1,0,0,1-1.11-1.05,1.27,1.27,0,0,1,1.39-1.26A1.35,1.35,0,0,1,25,51.87Z"/><path class="cls-7" d="M25.57,54.55a.08.08,0,0,1-.07-.07s.05-.1.11-.14c.76-.67,1.85-1.52,1.85-2.66,0-.86-.48-1-.75-1a.79.79,0,0,0-.58.19.9.9,0,0,0-.23.52c0,.06,0,.11-.07.11s0,0,0-.11,0-.5,0-.66,0-.07.07-.1a2,2,0,0,1,1-.21c1,0,1.37.52,1.37,1.16,0,1.05-1.17,2-1.88,2.53,0,0,0,0,0,0h.37c.09,0,.73,0,.94,0a.65.65,0,0,0,.62-.48c0-.07,0-.09.06-.09s.05.05.05.1a6.79,6.79,0,0,1-.16.78c0,.15-.13.16-.48.16Z"/><path class="cls-8" d="M25.57,54.55a.08.08,0,0,1-.07-.07s.05-.1.11-.14c.76-.67,1.85-1.52,1.85-2.66,0-.86-.48-1-.75-1a.79.79,0,0,0-.58.19.9.9,0,0,0-.23.52c0,.06,0,.11-.07.11s0,0,0-.11,0-.5,0-.65a.09.09,0,0,1,.07-.11,2,2,0,0,1,1-.21c1,0,1.37.52,1.37,1.16,0,1.05-1.17,2-1.88,2.53,0,0,0,0,0,0h.37c.09,0,.73,0,.94,0a.65.65,0,0,0,.62-.48c0-.07,0-.09.06-.09s.05.05.05.1a6.79,6.79,0,0,1-.16.78c0,.15-.13.16-.48.16Z"/><path class="cls-7" d="M31.56,50.48c.11,0,.13,0,.13.05a.24.24,0,0,1,0,.09,12.66,12.66,0,0,0-1.39,3.5,1.33,1.33,0,0,0,0,.2c0,.1-.44.33-.69.33-.06,0-.07,0-.07-.07a1,1,0,0,1,0-.22A20.69,20.69,0,0,1,31.15,51H29.73a1,1,0,0,0-.51.1.52.52,0,0,0-.18.33s0,.07-.05.07,0,0,0-.08c0-.21.08-.84.08-.9s0-.07.06-.07a3.44,3.44,0,0,0,.74,0Z"/><path class="cls-8" d="M31.56,50.48c.11,0,.13,0,.13.05a.24.24,0,0,1,0,.09,12.66,12.66,0,0,0-1.39,3.5,1.33,1.33,0,0,0,0,.2c0,.1-.44.33-.69.33-.06,0-.07,0-.07-.07a1,1,0,0,1,0-.22A20.69,20.69,0,0,1,31.15,51H29.73a1,1,0,0,0-.51.1.52.52,0,0,0-.18.33s0,.07-.05.07,0,0,0-.08c0-.21.08-.84.08-.9s0-.07.06-.07a3.44,3.44,0,0,0,.74,0Z"/><path class="cls-5" d="M9.26,41.12c0-1.54,0-1.82,0-2.14s-.11-.51-.44-.58a2.25,2.25,0,0,0-.4,0c-.12,0-.18,0-.18-.09s.07-.09.23-.09c.54,0,1.19,0,1.4,0l1.45,0a3.33,3.33,0,0,1,1.88.43,1.75,1.75,0,0,1,.7,1.38,2.81,2.81,0,0,1-1.35,2.26c.91,1.13,1.62,2,2.22,2.66a2.06,2.06,0,0,0,1.15.68l.28,0c.09,0,.13,0,.13.08s-.07.11-.2.11h-1a2,2,0,0,1-1.1-.2,4.78,4.78,0,0,1-1.4-1.48c-.41-.55-.88-1.24-1-1.39a.21.21,0,0,0-.18-.07l-.89,0c-.05,0-.08,0-.08.08v.14c0,.94,0,1.74,0,2.16s.09.51.4.55l.5,0c.08,0,.12,0,.12.08s-.07.11-.2.11c-.6,0-1.36,0-1.51,0l-1.25,0c-.13,0-.2,0-.2-.11s0-.08.16-.08a1.73,1.73,0,0,0,.37,0c.2,0,.26-.26.3-.55s0-1.22,0-2.15V41.12Zm1.21.79c0,.11,0,.15.09.18a2.41,2.41,0,0,0,.78.11,1,1,0,0,0,.72-.18,1.75,1.75,0,0,0,.61-1.51,1.63,1.63,0,0,0-1.57-1.85,3,3,0,0,0-.54,0c-.07,0-.09.06-.09.14Z"/><path class="cls-5" d="M15.88,42a3.92,3.92,0,0,1,4.23-4c2.55,0,4.14,1.47,4.14,3.77A4,4,0,0,1,20,46,3.87,3.87,0,0,1,15.88,42Zm6.94.2c0-2.27-1.33-3.67-3-3.67-1.19,0-2.53.65-2.53,3.16,0,2.1,1.18,3.76,3.15,3.76C21.16,45.45,22.82,45.11,22.82,42.2Z"/><path class="cls-5" d="M25.85,38.31c0-.17.09-.26.17-.26s.15.05.28.31L29.1,44l2.79-5.68c.08-.16.13-.24.22-.24s.16.1.19.31l.93,6.18c.09.63.19.92.5,1a1.9,1.9,0,0,0,.64.11c.09,0,.16,0,.16.06s-.12.12-.27.12-1.67,0-2.08-.05c-.23,0-.29-.06-.29-.12s0-.08.11-.11.09-.15,0-.43l-.61-4.39h-.05l-2.23,4.5c-.23.47-.29.57-.38.57s-.19-.21-.36-.51c-.24-.46-1.05-2-1.18-2.29s-.7-1.4-1.06-2.16h0l-.54,3.94a4,4,0,0,0,0,.47c0,.19.14.28.31.32a2.08,2.08,0,0,0,.43.05c.08,0,.16,0,.16.07s-.1.12-.25.12c-.43,0-.89,0-1.08,0l-1,0c-.1,0-.19,0-.19-.12s.06-.07.17-.07a1.41,1.41,0,0,0,.31,0c.28-.06.36-.45.42-.79Z"/><path class="cls-5" d="M37.09,43.24c-.06,0-.08,0-.1.08l-.55,1.39a2,2,0,0,0-.16.61c0,.18.1.32.41.32h.16c.12,0,.15,0,.15.07s-.06.1-.17.1l-1.09,0-1.21,0c-.13,0-.19,0-.19-.1s0-.07.12-.07l.32,0c.47-.06.66-.4.87-.9l2.57-6.26c.12-.29.18-.4.29-.4s.15.09.25.32c.25.56,1.89,4.59,2.55,6.13.39.9.68,1,.9,1.09a2.37,2.37,0,0,0,.43,0c.08,0,.13,0,.13.07s-.09.1-.47.1H40.36c-.18,0-.3,0-.3-.09s0-.07.14-.09a.16.16,0,0,0,.09-.23l-.82-2.07c0-.06,0-.08-.1-.08Zm2.09-.5s.06,0,0-.06L38.3,40.2s0-.09,0-.09,0,0-.06.09l-.94,2.47s0,.07,0,.07Z"/><path class="cls-3" d="M9.26,40.89c0-1.53,0-1.81,0-2.14s-.11-.5-.44-.57a2.25,2.25,0,0,0-.4,0c-.12,0-.18,0-.18-.1s.07-.08.23-.08l1.4,0,1.45,0a3.33,3.33,0,0,1,1.88.43,1.74,1.74,0,0,1,.7,1.38A2.83,2.83,0,0,1,12.53,42c.91,1.13,1.62,2,2.22,2.65a2,2,0,0,0,1.15.69l.28,0c.09,0,.13,0,.13.08s-.07.1-.2.1h-1A2.16,2.16,0,0,1,14,45.4a5,5,0,0,1-1.4-1.48c-.41-.56-.88-1.24-1-1.39a.19.19,0,0,0-.18-.08l-.89,0c-.05,0-.08,0-.08.08v.15c0,.93,0,1.73,0,2.15s.09.52.4.56l.5,0c.08,0,.12,0,.12.08s-.07.1-.2.1c-.6,0-1.36,0-1.51,0l-1.25,0c-.13,0-.2,0-.2-.1s0-.08.16-.08a1.73,1.73,0,0,0,.37,0c.2,0,.26-.26.3-.56s0-1.22,0-2.14V40.89Zm1.21.8c0,.11,0,.15.09.18a2.73,2.73,0,0,0,.78.1,1,1,0,0,0,.72-.17,1.77,1.77,0,0,0,.61-1.52,1.62,1.62,0,0,0-1.57-1.84,2.29,2.29,0,0,0-.54,0c-.07,0-.09.06-.09.14Z"/><path class="cls-3" d="M15.88,41.78a3.91,3.91,0,0,1,4.23-4c2.55,0,4.14,1.46,4.14,3.77A4,4,0,0,1,20,45.73,3.87,3.87,0,0,1,15.88,41.78Zm6.94.19c0-2.26-1.33-3.66-3-3.66-1.19,0-2.53.65-2.53,3.16,0,2.09,1.18,3.76,3.15,3.76C21.16,45.23,22.82,44.88,22.82,42Z"/><path class="cls-3" d="M25.85,38.08c0-.17.09-.26.18-.26s.14.06.27.32l2.8,5.6,2.79-5.67c.08-.16.13-.25.22-.25s.16.1.19.32l.93,6.17c.09.63.19.93.5,1a2.1,2.1,0,0,0,.64.1c.09,0,.16,0,.16.07s-.12.11-.26.11-1.68,0-2.09,0c-.23,0-.29-.05-.29-.11s0-.08.11-.11.09-.15,0-.44l-.61-4.38h-.05L29.16,45c-.23.47-.29.56-.38.56s-.19-.2-.36-.5c-.24-.47-1.05-2-1.18-2.29s-.7-1.41-1.06-2.16h0l-.54,3.93c0,.18,0,.32,0,.48s.14.28.31.32a2.08,2.08,0,0,0,.43,0c.08,0,.16,0,.16.07s-.1.11-.25.11c-.43,0-.89,0-1.08,0l-1,0c-.1,0-.19,0-.19-.11s.07-.07.17-.07a1.41,1.41,0,0,0,.31,0c.28-.06.36-.46.42-.8Z"/><path class="cls-3" d="M37.09,43c-.06,0-.08,0-.1.08l-.55,1.38a2.07,2.07,0,0,0-.16.62c0,.18.1.31.41.31h.16c.12,0,.15,0,.15.08s-.06.1-.17.1l-1.09,0c-.11,0-.67,0-1.21,0-.13,0-.19,0-.19-.1s0-.08.12-.08l.32,0c.47-.06.66-.4.87-.91l2.57-6.25c.12-.29.18-.4.29-.4s.15.08.25.32c.25.55,1.89,4.59,2.55,6.12.39.91.68,1,.9,1.1a2.29,2.29,0,0,0,.43,0c.08,0,.13,0,.13.08s-.09.1-.47.1-1.12,0-1.94,0c-.18,0-.3,0-.3-.08s0-.08.14-.09a.16.16,0,0,0,.09-.23l-.82-2.08a.1.1,0,0,0-.1-.07Zm2.09-.51s.06,0,0-.06L38.3,40s0-.09,0-.09,0,0-.06.09l-.94,2.47s0,.07,0,.07Z"/><path class="cls-9" d="M2.18,32.64H48.81"/><path d="M44.44,28.7,44,28.2c-.66-.79-2.12-2.73-2.12-2.73,0-6.29-1.15-7.47-2.33-8.46a9.28,9.28,0,0,0-4.47-1.58,10,10,0,0,0-1.63-.11c-.59,0-1.19,0-1.76.06s-8.82.37-11.5-.07a15.31,15.31,0,0,0-3.75.14c-.44.05-2.84.43-3.13,0a1,1,0,0,1,0-.48,1.4,1.4,0,0,0-.09-1.09c-.36-.49-.75-1-1-1a5.49,5.49,0,0,0-.81.62,1.49,1.49,0,0,0-.31,1.1c0,.28,0,.22,0,.25s-1.57,0-2,.06A1.52,1.52,0,0,0,8.86,14a4,4,0,0,1-.31-1s-.56.95-.74,1.2a3.62,3.62,0,0,0-.55.9,1.49,1.49,0,0,0-.07.43,1.1,1.1,0,0,1-.07.37,1.15,1.15,0,0,0-.49.87,2.69,2.69,0,0,0,.06.41,2.86,2.86,0,0,1,.06.35l-.09.06c-.26.17-.62.4-.6.8a2.09,2.09,0,0,0,.38,1.19c0,.1.11.19.17.31a1.88,1.88,0,0,1,.16.62c.06.32-.25.67,0,.88A2.24,2.24,0,0,0,8,21.65h.48a1.17,1.17,0,0,1,.29,0c.59.11,1.18.15,1.74.2a10.73,10.73,0,0,1,2.27.34,21.54,21.54,0,0,1,4.13,1.69l.22.11c.52.26.63.23.88.93s-.21,6.24-.31,6.81c-.16.92-.46,1.48-.94,1.66a2.18,2.18,0,0,0-1.18,1.21,5.08,5.08,0,0,1-.17.51s-.21.23-.14.29a2.63,2.63,0,0,0,.73-.1c.23,0,0,.13.21.13a3.59,3.59,0,0,0,1.91-.39c.29,0,.1.36.36.31.82-.14.9-.76,1-1.36.17-1,.14-1.17.25-1.26s.48.06.58,0,0-.81,0-1.46A12.92,12.92,0,0,1,21,28.3v-.05c.06-.2.16-.44.25-.69a5.91,5.91,0,0,0,.56-2.21.58.58,0,0,1,.51.3l.11.18c.33.52.49.67.7.67h.07c.35-.09.53-.38.73-.76s.4-.76.72-.83h.05a1.42,1.42,0,0,1,1,.64c.58.89,1.08.27,1.13.19s.54-.86.65-1,.23-.24.27-.24h0c.29,0,1.54,1.52,2,1.42s.91-1.66,1.17-1.66h0a2.86,2.86,0,0,1,.31.41c.34.5.41.83.67.83.08,0,.23-.07.32-.29,0-.06.12-.3.14-.33s.23.76.77.11c0,0,0,0,0,0h0c.07-.17,1.07.8,1.55,1.18s.79.74.83.76c1,.9,2.3,2,2.55,3.24A5.25,5.25,0,0,1,38,32.38a.64.64,0,0,1-.13.28.67.67,0,0,1-.29,0h-.22c-.35,0-.59.39-.8.72-.1.15-.22.27-.29.38a.33.33,0,0,0,.1.34,4.34,4.34,0,0,0,.89.18h.15a1.45,1.45,0,0,0,.49.07,1.75,1.75,0,0,0,1.44-.6,13.68,13.68,0,0,0,.78-2c0-.08,0-.16.07-.23s.12-.32.18-.49c.24-.62.65-1.28.47-1.89a3.67,3.67,0,0,0-.64-.91c-.18-.24-.88-1.14-1.09-1.46.65.63,2.47,1.55,2.93,2.63a10.09,10.09,0,0,1,0,2.39l0,.62c0,.65-.21.76-.87.83s-.84.89-1,1.34a.25.25,0,0,0,0,.07l-.07.21.22,0,.28,0a9.85,9.85,0,0,0,1.6.33,1.61,1.61,0,0,0,1.25-.41,3.5,3.5,0,0,0,.58-1.57c0-.21.28-1,.36-1.24C44.82,30.35,45.36,29.69,44.44,28.7Zm-37-8.32c-.2.12-.27-.22-.27-.22s-.07-.28,0-.34c.16.1.34.09.39.18A.34.34,0,0,1,7.42,20.38Z"/><path class="cls-7" d="M41.74,33.71c-.06.11-.29.14-.37.17s-.31.16-.3.27a4.28,4.28,0,0,0,0,.62c0,.06.25.13.3.06s0-.42,0-.68c0,0,0-.18.1-.22S41.8,33.81,41.74,33.71Z"/><path class="cls-7" d="M23.09,24.51c.19,0,.47-.07.57,0a.72.72,0,0,1,.22.45,5.3,5.3,0,0,1-.53,1s-.08.15-.17,0a8.69,8.69,0,0,1-.24-1.3S22.91,24.53,23.09,24.51Z"/><path class="cls-7" d="M44.23,29.1C44,28.72,43.29,28,43,27.72s-2-2.32-2-2.32-.47-2.84-.67-3.49c-.12-.41-.48-3.41-2.84-5,.13-.21,1.66,1,2.21,1.89,1,1.66,1.43,6,1.43,6s.64-6.65-2.94-8.06a8.51,8.51,0,0,0-3.84-.88,2.18,2.18,0,0,0-.71,3c.21.39,2.55,3.91,2.69,4.19,1.33,2.45,5.56,5.31,6.33,6.08,0,.05.77.51.81,1,0,.1-1-.56-1-.44a28.66,28.66,0,0,1,0,3.86c0,.31,0,.36-.23.43s-.4-.11-.51.21-.09.62.25.62.84.17,1.17-1,1-3.4,1.24-4.2C44.48,29.43,44.32,29.23,44.23,29.1Z"/><path class="cls-7" d="M8.51,14.07a5.58,5.58,0,0,1,.27,1c0,.23-.07.25-.07.25l-.84.35a1.44,1.44,0,0,0,.28-.46A5.85,5.85,0,0,0,8.51,14.07Z"/><path class="cls-7" d="M18.45,34.54s0,0,0,0l-.06-.07,0,0,.05,0s0,0,0,0l.06.07s0,0,0,.05Z"/><path class="cls-7" d="M37.7,33.24a.14.14,0,0,0-.16,0,1.58,1.58,0,0,0-.12.5.24.24,0,0,0,.28,0c.18-.07.54-.33.42-.42A1.55,1.55,0,0,0,37.7,33.24Z"/><path class="cls-7" d="M37.38,33.05a.33.33,0,0,0-.23.07.88.88,0,0,0-.21.42c0,.09.15.25.22.15S37.56,33,37.38,33.05Z"/><path class="cls-7" d="M6.8,18.25c-.18.29.36.54.49.39A.33.33,0,0,0,6.8,18.25Z"/><path class="cls-7" d="M7.52,18.4h0Z"/><path class="cls-7" d="M11.16,18.76c-.28-.32-.48-.85-.3-1s.35,0,.46.1.25,0,.24-.18,0-.32-.05-.48A2.31,2.31,0,0,0,11,16.1a1.6,1.6,0,0,0-1.78-.34,1.3,1.3,0,0,0-.39.49c0,.08.08.18,0,.27A4.71,4.71,0,0,1,8,18a7.37,7.37,0,0,1,3,1.41c.16.11-.14.74-.25.71s.18-.53,0-.62a8.78,8.78,0,0,0-1.92-.73c-.15-.05-.58.21-.69.11a2.32,2.32,0,0,0-.67-.44s.07.05.09.24c.06.5-.88,0-.08.8.23.22.44.39.61.32s.14,0,.16.09l.14.32c0,.06.06.06.07,0l.06-.33a.12.12,0,0,1,.14-.11s1.21,0,1.46.05.26.11.26.11a.28.28,0,0,1-.1.36c-.15.12-.51-.13-.79.1a2.37,2.37,0,0,1-.86.33.15.15,0,0,1-.17-.08l-.15-.32c0-.06,0-.06,0,0l0,.42a.32.32,0,0,1,0,.13s-.06-.05-.09-.11v0c0-.06-.08-.07-.13,0l-.07.08a.08.08,0,0,1-.14,0l0,0a.06.06,0,0,0-.12,0l0,.07c0,.06-.08.05-.1,0l0-.05c0-.06-.06-.06-.08,0s0,.05-.07,0l-.08.09a.33.33,0,0,0-.13.17c0,.07.09.11.5.19s2.36-.7,3-.57,1-.43,1-1.17c0,0,0-.06,0-.12A4.94,4.94,0,0,0,11.16,18.76Z"/><path d="M9.25,16.52s.24-.42.54-.5.45.06.79.29.53.58.86.48c.12,0-.26.39-.59.27-.07,0-.57-.84-1-.83A1.22,1.22,0,0,0,9.25,16.52Z"/><path d="M10.13,16.13a.64.64,0,0,0-.64.16c.11-.26.59-.1.8,0a1.58,1.58,0,0,1,.39.52.92.92,0,0,0-.46-.27c-.31,0-.34.37-.34.37l-.15.18s0,.05.25.05a4.43,4.43,0,0,0,1.16-.1C11.25,16.93,10.57,16.26,10.13,16.13Zm.09.86a.16.16,0,0,1,0-.32.16.16,0,1,1,0,.32Z"/><path class="cls-7" d="M16.4,34.17a6.39,6.39,0,0,0-.31.68c0,.06,0,.1,0,.1a.38.38,0,0,0,.23,0,6,6,0,0,0,.41-.75S16.53,34,16.4,34.17Z"/><path class="cls-7" d="M40.51,29.66c.16-.54-.35-.6-.53.1-.06.25-.78,2.8-.85,3.47,0,0,0,.06,0,0C39.19,33.49,40.45,29.9,40.51,29.66Z"/><path class="cls-7" d="M36.46,21.1s0,0-.07,0l-.25,0s-.07,0-.06,0v0a.08.08,0,0,1,.07,0l.26,0s.06,0,.06,0Z"/><path class="cls-7" d="M36.37,21.21l0,0-.17,0s0,0,0,0v0s0,0,.05,0l.16,0s.05,0,0,0Z"/><path class="cls-7" d="M17.4,15.78a15.26,15.26,0,0,1-4,.21c-.76-.1-.79-.56-.66-1-.7.68-1.07.42-1.09.33s.26,0,.45-.18A1.29,1.29,0,0,0,12.29,14c-.15-.31,0-.25,0-.25a.73.73,0,0,1,.56.5c.11-.46-.53-1-.74-.9a1.08,1.08,0,0,0-.58,1c.08.61,0,.92-.17.91-1.37-.06-2.9-.24-3.76.63a3.63,3.63,0,0,1,1.83-.59c.79.07,2.42.23,2.52,2.1,0,0,0,.42,0,.91,0,.26-.23.1-.23.21,0,.52.39.44.36.89-.13,1.84-1,1.81-1,1.81s1.05.14,1.57-1.58c0,1-.11,1.23-.52,1.62a1.71,1.71,0,0,0,1.44-.8,2.15,2.15,0,0,0,.94,1,2.43,2.43,0,0,1-.16-1.57c.18,1.15.48,1.58,1.08,1.83a1.86,1.86,0,0,1-.59-1.7,2.94,2.94,0,0,0,1.07,1.51,3.27,3.27,0,0,1-.38-1.33c.4.86.84.94.84.94a3.16,3.16,0,0,1-.79-1.61s.47.62.87.62a2.79,2.79,0,0,1-.84-1.52c.3.39.52.64.87.68a3,3,0,0,1-.63-1.52c.34.42.28.56.92.73a1.39,1.39,0,0,1-.29-1.2,1.42,1.42,0,0,0,1,.51,1.63,1.63,0,0,1-.39-1,2.22,2.22,0,0,0,1.12.22,1,1,0,0,1-.26-.77,3,3,0,0,0,1,0c-.24-.15-.45-.37-.39-.35s.47-.09.85-.15a3.12,3.12,0,0,1,.74-.06A7,7,0,0,0,17.4,15.78Z"/><path class="cls-7" d="M30,23.47s-.8,0-.86.19a7.34,7.34,0,0,0,.43,1.69c.1.24.37-.32.37-.32a6.63,6.63,0,0,0,.42-1C30.39,23.89,30.4,23.47,30,23.47Z"/><path class="cls-7" d="M33.9,25l-.14,0a.2.2,0,0,0,.11,0A.11.11,0,0,1,33.9,25Z"/><path class="cls-7" d="M26.89,23.6s-.8-.05-.86.19a5.93,5.93,0,0,0,.34,1.52c.08.24.25-.12.25-.12.08-.15.72-1,.73-1.05S27.26,23.59,26.89,23.6Z"/><path class="cls-7" d="M32.52,15.8c-.25,0-2.35.25-3.74.25-1.12,0-2.29-.05-2.92,0a.7.7,0,0,0-.2,0c-.94,0-3.93-.09-3.93-.09A4.64,4.64,0,0,0,18,20c-.27,2.05-.14,2.7.33,3.67a6.32,6.32,0,0,1,.83,2.48c0,.35-.64-1.46-.63-1.25a55.37,55.37,0,0,1-.49,7.84c-.26,1.2-.5.6-.79,1.1,0,.08-.66,1.19-.65,1.2s.31,0,.63-.06.67-1,.92-1c0,0-.28.79-.23.78.27-.06.69-.17.66,0a.2.2,0,0,0,.23-.08c.08-.09.42-1.63.63-2.42.05-.13.4-.06.49,0a19.31,19.31,0,0,1,.44-3.37c.54-1.7,1.1-3.19.85-3.63,0-.05-.95,1.16-1,1.11s3-5.19,2.41-7.81a1.77,1.77,0,0,1-.06-.28s.36.13.8.24,1.07.27,1.25.92c.2,1.26.8,3,2,3.15a7.78,7.78,0,0,1-1.16-4c.34,1.68,1.38,4.12,2.24,4a7.34,7.34,0,0,1-.89-2.77c.31.8,1,2.55,1.6,2.56,1.46,0,1.83-.62,2.91-.86,2.42-.54,3.05.38,3.42.56a21.78,21.78,0,0,1-2-3.36c-.54-1.07.36-2.14,1.89-2.81C35,15.77,33,15.79,32.52,15.8Z"/><path d="M33.56,25.05a.5.5,0,0,0-.15-.09h-.09l0,0v0a.1.1,0,0,1,.1-.07l.07,0a.18.18,0,0,1,.12.13l0,0Z"/><path d="M32.87,24.92a.09.09,0,0,1,.09-.07H33l0,0h0L33,25h-.14l0,0Z"/><path d="M33,24.88l0,0,0,0h0c-.08,0-.11,0-.11,0S32.9,24.84,33,24.88Z"/><path d="M34.35,34c-.85,0-1-1.37-1-1.61a1.29,1.29,0,0,1-.59-.28l0,0c0,.1,0,.21,0,.3s0,.57.06.68h0a.65.65,0,0,1-.3.72.82.82,0,0,1-.35.08,1.57,1.57,0,0,1-.27,0h-.11l-.31,0h0l-.77,0h-.05a.85.85,0,0,1-.53-.23.42.42,0,0,1,0-.54l0,0,0,0a.62.62,0,0,1,.25-.1l.53-.3c-.23-.42-1.2-1.89-.35-2.35a5.2,5.2,0,0,1,1.25-.44.29.29,0,0,1,0-.09.76.76,0,0,0,0-.23.86.86,0,0,1-.38.1h-.11a1.77,1.77,0,0,1-.7-.53c-.07-.09-.31-.53-.54-.95a2.93,2.93,0,0,1-.72-.06c-.06,0-.13,0-.54-.37a.46.46,0,0,1-.17-.41A.37.37,0,0,1,28.9,27h0a.45.45,0,0,1,.28-.17h.09a.53.53,0,0,1,.26.08.23.23,0,0,1,0-.14.45.45,0,0,1,.41-.23.93.93,0,0,1,.33.08h0l.05,0a2.8,2.8,0,0,1,.31.09c.11,0,.18.1.37.43l.31.3a1.46,1.46,0,0,1,.37-.52,1.09,1.09,0,0,1,.31-.14l.08,0a.91.91,0,0,1,.16-.11s0,0,0-.05-.1-.14-.14-.21a.85.85,0,0,1-.11-.51v0c0-.32.42-.59.43-.59l.14-.08a3.48,3.48,0,0,1,.33-.34.83.83,0,0,1,.29-.16.57.57,0,0,1,.56-.27l.49,0a.56.56,0,0,1,.42.33.47.47,0,0,1,.32.44l.07.07a.72.72,0,0,1,.18.34,1.07,1.07,0,0,1,.08.58,1.06,1.06,0,0,1-.19.65l0,.11a1.24,1.24,0,0,1,.47.83c0,.11.16.56.22.85a1.65,1.65,0,0,1-.06.85l0,0,0,0-.23.29a.61.61,0,0,1-.34.21c0,.14.07.29.1.43a2,2,0,0,1,.41.95.73.73,0,0,1-.07.3h0a1,1,0,0,1,0,.4,2.15,2.15,0,0,1,.32.5l0,.05c.51,1.09-.76,1.18-.84,1.15A1.72,1.72,0,0,1,34.35,34Z"/><path class="cls-7" d="M34.27,24.81a3.13,3.13,0,0,0-.43,0c-.38,0-.18.19-.18.19a1.07,1.07,0,0,0-.43.15c-.12.12-.35.38-.35.38l-.16.08a.56.56,0,0,0-.27.31.43.43,0,0,0,0,.34c.08.13.21.3.21.3a.19.19,0,0,1,0,.14c0,.07-.09.25-.09.25a1.05,1.05,0,0,0-.23.15c-.06.06-.31.1-.38.15a1.17,1.17,0,0,0-.34.58.89.89,0,0,0-.2.25l-.67-.67s-.09-.27-.22-.31l-.41-.14c-.25-.1-.29,0-.24,0a1.43,1.43,0,0,0,.24.16s0,.28-.58.18c0,0-.2-.11-.31-.15-.27-.09-.22.17-.17.22s.34.32.4.34.83.05.83.05.54,1,.61,1.08a1.54,1.54,0,0,0,.49.4.77.77,0,0,0,.65-.42l.07,1.29a7.24,7.24,0,0,0-1.44.45c-.45.35.36,1.71.63,2.07.08.12,0,.14,0,.14s-.85.46-.86.5a.17.17,0,0,0-.14,0s0,0,0,.08a.46.46,0,0,0,.28.12l.85,0,.41,0a.66.66,0,0,0,.44,0c.15-.08.13-.23.11-.37s-.06-.7-.06-.7,0-.65,0-.72a2,2,0,0,0,.48.05c.09-.05.17.09.17.09s.28.22.41.2.14,0,.21-.22.08-.05.08.12-.08,1.74.67,1.71a1.77,1.77,0,0,0,.81-.24.3.3,0,0,0,.31.12.4.4,0,0,0,.17-.66c0-.07-.25-.54-.39-.55a2.14,2.14,0,0,0-.06-.58,1.05,1.05,0,0,0,.1-.3,1.62,1.62,0,0,0-.39-.79,7.42,7.42,0,0,0-.27-1,3,3,0,0,0,.37.11.24.24,0,0,0,.21-.1l.21-.27a1.19,1.19,0,0,0,0-.65c-.07-.31-.22-.84-.22-.84s-.08-.51-.33-.63a.84.84,0,0,0-.31-.1s-.08-.11,0-.14a.51.51,0,0,0,.18-.12,1,1,0,0,0,.08-.21s.15-.08.15-.5a.66.66,0,0,0-.07-.44.3.3,0,0,0-.09-.21l-.16-.17s0-.22-.08-.25l-.18-.05S34.45,24.83,34.27,24.81Z"/><path d="M32.9,25.59c.08,0,.14.13.15.16s0,0-.06,0-.08-.09-.16-.09-.09.07-.12.06S32.82,25.6,32.9,25.59Z"/><path d="M33.54,25.37a.2.2,0,0,1,.12.12.36.36,0,0,0-.16-.08.13.13,0,0,0-.1,0S33.42,25.33,33.54,25.37Z"/><path d="M34.4,26.05s0,0,0,0h0a.12.12,0,0,1-.12.06.18.18,0,0,1-.1,0,.11.11,0,0,0,.12.12.24.24,0,0,0,.17-.09h0Z"/><path d="M34.8,30.09l-.08-.35,0-.12L34,28.42l0-.05-.09-.09s0,0,0,0a1.91,1.91,0,0,0,.72-.12,6.13,6.13,0,0,0,.7.73,6.32,6.32,0,0,0-.64-.92,2.3,2.3,0,0,0,0-.41.45.45,0,0,0-.29-.22h0l0,0v0l-.11-.18.26.08h.07l.07-.1-.53-.18s-.1-.11-.1-.2.37-.41.3-.43-.49.31-.5.41a.53.53,0,0,0,.1.29.18.18,0,0,0,0,.1c-.66,0-.9.27-.92.39a6,6,0,0,1,.71-.23c-.12.11.07.33.07.33s-.08-.05-.15,0,0,.3,0,.34a.16.16,0,0,0-.11,0c-.06.08.06.23.15.33s-.15,0-.7-.38c0,.4.68.64.89.64ZM33.69,28s.15.06.18,0-.22-.31-.14-.37.2.16.25.12,0-.06,0-.1l-.12-.21s-.12-.19,0-.22.16.1.17.12.16.27.22.24-.11-.42-.11-.42S34,27,34.07,27s.07,0,.17.11a2.86,2.86,0,0,0,.32.48.29.29,0,0,0,0-.17c.06,0,.16.08.16.15a.79.79,0,0,1,0,.28,1.57,1.57,0,0,1-.86.3S33.65,28,33.69,28Z"/><path d="M32.14,30l-.09.05-.14.09A5.42,5.42,0,0,0,33,32V31.9A5.08,5.08,0,0,1,32.14,30Z"/><path d="M34.2,30.71c-.34.05-.57,1.13-.57,1.13s.08.08.08.08.27-.93.5-1a1.35,1.35,0,0,1,.59,0A.91.91,0,0,0,34.2,30.71Z"/><path d="M31.63,29s-.1-1.05-.1-1.05l0,.05L31.4,28A3.88,3.88,0,0,0,31.63,29Z"/><path d="M31.87,28.17,32,29l.15-.08,0-.62s.07,0,.1,0S32,28.17,32,28s.13-.26.1-.27-.06,0-.06,0,0-.22,0-.29a1,1,0,0,1,.15-.3.57.57,0,0,0-.36.44l0,.27a.61.61,0,0,0,0,.14.32.32,0,0,0,0,.13Z"/><path d="M35.29,32.23a3.24,3.24,0,0,1-.23,1.28h.12a2,2,0,0,0,.17-.49,6.15,6.15,0,0,0,0-.7Z"/><path d="M31.51,30.83c0,.22.86,1,.86,1l.24-.11A8.82,8.82,0,0,1,31.51,30.83Z"/><path d="M34,25.18a.37.37,0,0,1,0,.14.18.18,0,0,0,.12.18.43.43,0,0,1,.18.17l0,0s0,.05,0,.12l0,.06a0,0,0,0,0,0,.05h0a.19.19,0,0,0,.1.13s0,.06,0,.17v0c0,.12,0,.41.06.39s.06-.27.08-.3a.54.54,0,0,0,.06-.29.09.09,0,0,0,0-.06c-.06,0-.08-.07-.08-.08s0,0,0,0l0-.07a.23.23,0,0,0,0-.18.6.6,0,0,0-.22-.23c-.07,0-.1-.06-.1-.09s0,0,0-.07a.21.21,0,0,0,0-.14.61.61,0,0,0-.54-.26l-.14.15A.44.44,0,0,1,34,25.18Z"/><path d="M32.24,27.11a3,3,0,0,1,.64.3c.06-.1-.35-.32-.53-.38s-.12,0-.13,0A0,0,0,0,0,32.24,27.11Z"/><path d="M31.09,32.92a1,1,0,0,0-1.3-.25l0,0c-.1-.08-.4-.25-.54-.33a1.26,1.26,0,0,0-.37-.31,3.3,3.3,0,0,0-.83-.3,2.85,2.85,0,0,0-.14-.84,8.59,8.59,0,0,0,.06-.92,4.48,4.48,0,0,0,.64.07.72.72,0,0,0,.28,0,1.11,1.11,0,0,0,.65-.37l0-.05V29.5a1.1,1.1,0,0,0-.15-.84,7,7,0,0,0-.91-1l0-.29a.48.48,0,0,0-.16-.39,4,4,0,0,0-.46-.45.71.71,0,0,0-.34-.09l-.12,0c-.31.06-.28.54-.27.58L27,27a.84.84,0,0,0-.42-.21.58.58,0,0,0-.35-.12h0a.37.37,0,0,0-.3.11.66.66,0,0,0-.39.25.68.68,0,0,0-.28.28.89.89,0,0,0-.27.4l0,.08a1,1,0,0,0-.1.6v0a.88.88,0,0,0-.56.41c-.06.12-.12.28-.17.41s-1,.12-.94.52a.44.44,0,0,0,.19.34.36.36,0,0,0,0,.4.53.53,0,0,0,.24.23,1.24,1.24,0,0,0,.16.3,1.11,1.11,0,0,0,.26.24,2,2,0,0,0-.5.25.75.75,0,0,0-.3,1.07,9.1,9.1,0,0,0,1,1s-.63,1.12.36,1.17c.22.37,1-.16,1-.18s1.09,0,.82-.77l.44-.11a2.54,2.54,0,0,0,.53.17h.26a4.12,4.12,0,0,0,.48,0l.11,0a1.49,1.49,0,0,0,.5.5c.26.15.85.41,1.05.5a1.58,1.58,0,0,0,.73.38c.88,0,.61-.79.63-.83A2.15,2.15,0,0,0,31.09,32.92Z"/><path class="cls-7" d="M28,28.76a2.06,2.06,0,0,0-.52-.15.78.78,0,0,0-.2-.09s.21-.16.21-.27c-.15-.75-.41-.8-.41-.8a.39.39,0,0,0-.3-.2c0-.16-.35-.19-.35-.19a.26.26,0,0,0-.21-.09c-.09,0-.12,0-.17.1a.32.32,0,0,0-.31.18.4.4,0,0,0-.25.25s-.11,0-.21.29a.58.58,0,0,0,0,.75.86.86,0,0,1-.21.12c-.12,0-.4.05-.51.27s-.26.65-.26.65a.37.37,0,0,0-.15,0,1.58,1.58,0,0,0-.48.06s-.19.05-.18.1.26.11.26.11l-.06.34s-.1.1-.08.15a.11.11,0,0,0,.12.06s.11-.09.11-.09a.94.94,0,0,0,.15.51.89.89,0,0,0,.32.26.34.34,0,0,0,.21,0,.77.77,0,0,0,.3-.24c0-.06.07-.25.07-.25a1.38,1.38,0,0,1,.11-.3s.07,0,.07,0v.6a2.7,2.7,0,0,0-.24.57,2.05,2.05,0,0,0-1.16.3c-.39.26-.25.5-.18.63s1.26,1.26,1.3,1.3,0,.09,0,.09h-.13s-.18-.07-.21,0,.12.16.12.19-.15,0-.17.06a.32.32,0,0,0,.07.31c.05.06.18,0,.21,0s0,.08.15.1.67-.29.73-.28a.38.38,0,0,0,.5-.22.46.46,0,0,0,0-.29,1.76,1.76,0,0,0-.19-.24l.21-.07s0,0,.09,0a1.67,1.67,0,0,0,.4.07c.08,0,.38-.14.42-.12a2,2,0,0,0,.45.16,3.43,3.43,0,0,0,.64,0c.12,0,.35-.09.35-.09a1.51,1.51,0,0,0,.49.61c.3.17,1.09.51,1.09.51s.32.33.53.33a.26.26,0,0,0,.27-.22,1.07,1.07,0,0,1,0-.38,4,4,0,0,0,.09-.64c0-.17.07-.63-.38-.7l-.25,0c-.07,0,0,.16-.06.1a.11.11,0,0,0-.13-.07A.18.18,0,0,0,30,33l0,.25-.47-.37c-.1-.08-.54-.33-.54-.33a2.18,2.18,0,0,0-.3-.27,2.41,2.41,0,0,0-1-.32,3.2,3.2,0,0,0-.16-1.12,6.52,6.52,0,0,0,0-1.12c0-.09.13-.16.2-.16a3.34,3.34,0,0,0,1,.07s.37-.09.46-.23a.82.82,0,0,0-.11-.58,7.23,7.23,0,0,0-1-1.05c0-.17,0-.46,0-.46a.16.16,0,0,0,0-.1l-.38-.41a.32.32,0,0,0-.22-.05c-.05,0,0,.13,0,.15a.91.91,0,0,0,.12.11l0,.13s-.06,0-.07.05a.5.5,0,0,0,0,.21s.1,0,.1,0-.07.14-.13.15-.15-.31-.23-.24a.19.19,0,0,0,0,.17,1.62,1.62,0,0,0,.17.41l.1.08A6.25,6.25,0,0,1,28,28.76Z"/><path d="M24.19,31.73c.57-.06,1.62,1.68,1.65,1.72s.1-.05.1-.05S25,31.48,24.19,31.73Z"/><path d="M24.11,29.88c.11,0,.27-.21.25-.22s-.11.12-.27.12l-.17,0h0s-.15.05-.15.05l0,.09.13,0A.45.45,0,0,0,24.11,29.88Z"/><path d="M25,28.83a7.22,7.22,0,0,0,0,1.61l.12-.16c0-.09,0-.56,0-.62s.6-.09.72-.3a2.61,2.61,0,0,1-.48.05c-.18,0-.22-.1-.23-.15S25,28.82,25,28.83Z"/><path d="M24.9,31.35l-.1.08c.78.41,1.26,1.92,1.27,1.94v0l.26.08S25.72,31.71,24.9,31.35Z"/><path d="M26.77,33.39s.21,0,.21,0h0a1.9,1.9,0,0,1,.58-1.3S26.91,32.16,26.77,33.39Z"/><path d="M30,33.25l-.15-.1a3.44,3.44,0,0,1,.07.48l0,0h0c-.05.06,0,.29,0,.29a.83.83,0,0,1,.13-.21l0,0s0-.05,0-.18S30,33.25,30,33.25Z"/><path d="M27.64,28.81a1.73,1.73,0,0,0-.08.44s0,.26-.3.21a1.84,1.84,0,0,1-.4-.09c.1.19.57.29.69.45a.69.69,0,0,1,.05.24h.09v-.32l.1,0C27.74,29,27.67,28.8,27.64,28.81Z"/><path d="M25.71,28.52l-.43,0L25,28.6l.08.07a3.09,3.09,0,0,1,.63-.08h.1c.21,0,.47.14.47.1a1.35,1.35,0,0,0-.45-.18Z"/><path d="M27.56,28.62h0v0l-.12-.06h-.56a1.3,1.3,0,0,0-.53.2s.34-.1.55-.12A2.89,2.89,0,0,1,27.56,28.62Z"/><path d="M27.12,27.59c.11-.12-.1-.24-.1-.26s.15.19,0,.14-.5-.28-.52-.29,0-.09.27.07c0,0-.12-.16-.31-.14a.11.11,0,0,0,0-.07h0s.05.07,0,.07-.06-.06-.07-.07-.11,0-.06.05l.06,0s0,0,0,0l-.11,0a.27.27,0,0,0-.12,0s0,0,0,0,0,0,.05,0-.05-.14-.07,0l0,.05c-.06,0,0-.09,0-.09h0a.1.1,0,0,0-.05.06s-.23,0-.26.13c.16-.12.25-.11.24-.07s-.2.13-.28.21a1.42,1.42,0,0,0-.17.16s0-.06,0-.14c-.1.1-.08.18-.05.22a.44.44,0,0,0,0,.4,1.59,1.59,0,0,0,.45.38s-.37-.37-.4-.52c-.07-.36.42-.67.58-.69a.13.13,0,0,0,.12,0c.11,0,.13,0,.13,0s.72.21.66.64c0,.14-.08.3,0,.32s0-.06.1-.18A.42.42,0,0,0,27.12,27.59Z"/><path d="M28.69,29.53c-.08-.08-.72-.83-.72-.84a.06.06,0,0,0,0,0s-.09,0-.09,0a3.49,3.49,0,0,0,.65.74C28.58,29.51,28.66,29.56,28.69,29.53Z"/><path d="M24.74,33.64a.87.87,0,0,1,.09.12.58.58,0,0,1,.22-.26,1.55,1.55,0,0,1,.46-.19A.7.7,0,0,0,24.74,33.64Z"/><path d="M24.55,30.56c.07,0,.09-.07.1-.14v0a.43.43,0,0,0,.11-.19c0,.18.13.54.06.64l-.1.1.11-.06a.19.19,0,0,0,.09-.22c0-.07-.12-.65-.12-.65v0a.32.32,0,0,0-.07-.2.34.34,0,0,0-.26-.15s.3.2.26.41-.07.21-.07.22l0-.05v.12c0,.06,0,.08-.06.08s-.2.15-.33.12a.72.72,0,0,1-.25-.19c-.07-.05,0-.15,0-.15a.08.08,0,0,0,0-.06s-.08.11-.08.11-.07.17,0,.24.11.11.3.16S24.4,30.56,24.55,30.56Z"/><path d="M32.8,25a.34.34,0,0,1-.34-.3,5.74,5.74,0,0,0-.22-.53c-.55-1.27-.51-.8-.45-1,.09-.36.59-.4,1-.4h.18a.69.69,0,0,1,.46.19.92.92,0,0,1,.26.63,10,10,0,0,1-.42,1.08h0c-.21.32-.38.33-.44.33Z"/><path class="cls-7" d="M32.93,23.07s-.81-.05-.87.19.51,1.16.68,1.42.26-.12.26-.12a6.13,6.13,0,0,0,.37-.95C33.37,23.48,33.29,23.07,32.93,23.07Z"/><path d="M10.11,15.22a3,3,0,0,1,2.64,2.62,3.08,3.08,0,0,0-1-2.33c-.07,0-.35-.18-.14-.62A2.5,2.5,0,0,0,10.11,15.22Z"/><path d="M20.8,16.22s1.37-.51,1.69,1.66c.15-.8,0-1.74-.59-2S20.8,16.22,20.8,16.22Z"/><path d="M14.36,18.53s.14.46.28.55.53-.47.53-.47a2.78,2.78,0,0,1-.5.84C14.48,19.31,14.41,19.14,14.36,18.53Z"/><path d="M14.91,19a1.91,1.91,0,0,0,.37.54c.15.09.48-.44.48-.44a4.15,4.15,0,0,1-.45.82A1,1,0,0,1,14.91,19Z"/><path d="M13.64,19.81s.26.49.43.55.29-.6.29-.6.11.78-.19,1C13.92,20.66,13.79,20.56,13.64,19.81Z"/><path d="M14.32,19.53a1.49,1.49,0,0,0,.28.52c.14.11.42-.66.42-.66a3.75,3.75,0,0,1-.31,1.13A1.33,1.33,0,0,1,14.32,19.53Z"/><path d="M14.87,19.87a1.57,1.57,0,0,0,.43.47c.16.07.27-.58.27-.58s0,.75-.15,1A1,1,0,0,1,14.87,19.87Z"/><path d="M15,18.06s.26.57.43.66.42-.53.42-.53a1.73,1.73,0,0,1-.43.88C15.23,18.9,15.17,18.78,15,18.06Z"/><path d="M14.59,17.57s.16.43.31.5.39-.5.39-.5a2.58,2.58,0,0,1-.38,1C14.75,18.41,14.68,18.21,14.59,17.57Z"/><path d="M15.48,17.42s.13.37.26.45.31-.25.31-.25-.07.52-.31.58C15.65,18.12,15.55,18,15.48,17.42Z"/><path d="M16.16,17s.07.34.18.42.29-.25.29-.25a.76.76,0,0,1-.3.56A.77.77,0,0,1,16.16,17Z"/><path d="M16.8,16.48s.07.35.17.42.3-.24.3-.24,0,.47-.3.52A1.15,1.15,0,0,1,16.8,16.48Z"/><path d="M13.78,19s.23.41.34.42.32-.42.32-.42-.1.58-.32.7A1.24,1.24,0,0,1,13.78,19Z"/><path d="M15.17,17s.1.34.2.41.28-.27.28-.27-.06.49-.24.63C15.29,17.71,15.14,17.53,15.17,17Z"/><path class="cls-7" d="M25.21,22.4c-.38-.13-.85-.9-1-1.23A3.31,3.31,0,0,1,24,19.5,9.74,9.74,0,0,0,24.44,21,11.52,11.52,0,0,0,25.21,22.4Z"/><path d="M33.37,32.38a1,1,0,0,0-.59-.3c-.14,0-.17,0-.19.12a1.16,1.16,0,0,0,0,.37c0,.21,0,.15.25.16a3.17,3.17,0,0,0,.43,0c.14,0,.17,0,.17-.14s0-.2-.08-.24"/></g></svg>