<svg width="129" height="16" viewBox="0 0 129 16" fill="none" xmlns="http://www.w3.org/2000/svg">
<path d="M8.01667 12.702L3.06504 15.2158L4.00904 9.88937L0 6.12032L5.53855 5.34444L8.01667 0.501953L10.496 5.34444L16.0305 6.12032L12.0229 9.88937L12.9719 15.2158L8.01667 12.702Z" fill="#FCA965"/>
<path d="M36.0474 12.2L31.0958 14.7138L32.0398 9.38742L28.0308 5.61836L33.5693 4.84248L36.0474 0L38.5268 4.84248L44.0613 5.61836L40.0537 9.38742L41.0027 14.7138L36.0474 12.2Z" fill="#FCA965"/>
<path d="M64.0782 12.2L59.1266 14.7138L60.0706 9.38742L56.0615 5.61836L61.6001 4.84248L64.0782 0L66.5575 4.84248L72.0921 5.61836L68.0844 9.38742L69.0334 14.7138L64.0782 12.2Z" fill="#FCA965"/>
<path d="M92.109 12.2L87.1573 14.7138L88.1013 9.38742L84.0923 5.61836L89.6308 4.84248L92.109 0L94.5883 4.84248L100.123 5.61836L96.1152 9.38742L97.0642 14.7138L92.109 12.2Z" fill="#FCA965"/>
<path d="M120.14 12.2L115.188 14.7138L116.132 9.38742L112.123 5.61836L117.662 4.84248L120.14 0L122.619 4.84248L128.154 5.61836L124.146 9.38742L125.095 14.7138L120.14 12.2Z" fill="#FCA965"/>
</svg>
