<svg width="84" height="84" viewBox="0 0 84 84" fill="none" xmlns="http://www.w3.org/2000/svg">
<path d="M42 0C33.6932 0 25.5729 2.46326 18.6661 7.07828C11.7592 11.6933 6.37596 18.2528 3.19708 25.9273C0.018198 33.6018 -0.813542 42.0466 0.807037 50.1938C2.42762 58.341 6.42773 65.8247 12.3015 71.6985C18.1753 77.5723 25.659 81.5724 33.8062 83.193C41.9534 84.8135 50.3982 83.9818 58.0727 80.8029C65.7472 77.624 72.3067 72.2408 76.9217 65.3339C81.5367 58.4271 84 50.3068 84 42C84 30.8609 79.575 20.178 71.6985 12.3015C63.822 4.42499 53.1391 0 42 0ZM55.72 44.31L38.745 57.0325C38.316 57.3542 37.8059 57.5502 37.2718 57.5983C36.7378 57.6465 36.2008 57.545 35.7212 57.3051C35.2416 57.0653 34.8382 56.6967 34.5563 56.2405C34.2743 55.7844 34.125 55.2587 34.125 54.7225V29.2775C34.125 28.7413 34.2743 28.2156 34.5563 27.7594C34.8382 27.3033 35.2416 26.9347 35.7212 26.6948C36.2008 26.455 36.7378 26.3535 37.2718 26.4017C37.8059 26.4498 38.316 26.6458 38.745 26.9675L55.72 39.69C56.0786 39.959 56.3697 40.3077 56.5702 40.7087C56.7706 41.1096 56.875 41.5517 56.875 42C56.875 42.4483 56.7706 42.8904 56.5702 43.2913C56.3697 43.6923 56.0786 44.041 55.72 44.31Z" fill="white"/>
</svg>
